<?xml version="1.0" encoding="UTF-8"?>
<svg version="1.1" xmlns="http://www.w3.org/2000/svg" width="612" height="408">
<path d="M0 0 C0 1.32 0 2.64 0 4 C-2.55956342 6.40900086 -5.28258287 8.17933144 -8.25 10.0625 C-11.25355341 11.77166117 -11.25355341 11.77166117 -12 15 C-10.73636672 17.40971928 -9.41558679 19.68401102 -8 22 C-7.32035613 23.23915857 -6.65109784 24.48406828 -5.9921875 25.734375 C-5.47954346 26.70443481 -5.47954346 26.70443481 -4.95654297 27.6940918 C-4.59963379 28.3725415 -4.24272461 29.05099121 -3.875 29.75 C-3.49102051 30.47807861 -3.10704102 31.20615723 -2.71142578 31.95629883 C-1.89437418 33.50593055 -1.07781611 35.05582257 -0.26171875 36.60595703 C1.00995379 39.01888677 2.2858132 41.42956384 3.5625 43.83984375 C5.66684868 47.81428041 7.75145924 51.79872317 9.83203125 55.78564453 C10.93017925 57.86762663 12.05449862 59.93293144 13.1875 61.99609375 C19.52573028 73.72344021 19.52573028 73.72344021 18 81 C12.40940726 85.77389471 7.75819912 85.52781468 0.703125 85.3203125 C-7.08570532 84.64659511 -12.46923065 82.53076935 -18 77 C-21.45655661 72.57128684 -23.75867747 67.5805963 -26.22265625 62.55859375 C-28.64640868 57.70576195 -31.19655477 52.9235027 -33.75268555 48.1394043 C-36.24588892 43.46264 -38.64684621 38.7488986 -41 34 C-47.36143522 38.56391545 -53.62556606 43.22418712 -59.8203125 48.01196289 C-69.90477412 55.79663959 -80.11970839 63.40253164 -90.4375 70.875 C-91.15832764 71.39811768 -91.87915527 71.92123535 -92.62182617 72.46020508 C-105.71806529 81.9049701 -114.35726658 86.25605535 -131 85 C-134.03158079 84.21949882 -136.73041383 83.26958617 -139 81 C-141.00645727 71.8778592 -136.28773045 64.59360732 -132.04296875 56.92138672 C-131.0937783 55.17276106 -130.21459669 53.38658896 -129.34375 51.59765625 C-125.78337696 44.39168848 -125.78337696 44.39168848 -121.625 42.3125 C-120.325625 42.1578125 -120.325625 42.1578125 -119 42 C-120.5778125 42.0928125 -120.5778125 42.0928125 -122.1875 42.1875 C-126.33313217 41.98361645 -127.98927676 41.83868192 -131 39 C-132.74011253 34.77401242 -133.18770575 31.12623449 -132.4375 26.625 C-130.65684357 23.37336652 -129.43862183 22.37544873 -126 21 C-121.53860339 20.35106958 -119.61404796 20.62212433 -115.75 23 C-113.20564216 25.33397166 -112.93164849 26.24526131 -111.9375 29.8125 C-110.18305558 35.39482314 -105.13034135 37.65753814 -100.421875 40.53125 C-96.42334423 42.24751435 -94.31123538 42.63563086 -90 42 C-86.74005651 40.56574303 -83.76950874 38.75569322 -80.75 36.875 C-79.05261194 35.85458893 -77.35469881 34.83505076 -75.65625 33.81640625 C-74.84800781 33.32543457 -74.03976563 32.83446289 -73.20703125 32.32861328 C-68.88983038 29.72969656 -64.44559512 27.36970659 -60 25 C-58.28296875 24.08154297 -58.28296875 24.08154297 -56.53125 23.14453125 C-53.99234178 21.78761442 -51.45180763 20.43380228 -48.91015625 19.08203125 C-46.29034985 17.68843341 -43.67334749 16.28977316 -41.05859375 14.88671875 C-37.37847767 12.91285509 -33.69135949 10.95276697 -30 9 C-29.08347656 8.51402344 -28.16695313 8.02804688 -27.22265625 7.52734375 C-7.68959108 -2.56319703 -7.68959108 -2.56319703 0 0 Z M-15 14 C-17.31 15.65 -19.62 17.3 -22 19 C-18.42424104 19 -16.94704065 17.91159393 -14 16 C-14.33 15.34 -14.66 14.68 -15 14 Z M-24 20 C-24.33 20.66 -24.66 21.32 -25 22 C-24.01 21.67 -23.02 21.34 -22 21 C-22.66 20.67 -23.32 20.34 -24 20 Z M-30 24 C-30.99 25.485 -30.99 25.485 -32 27 C-30.68 26.34 -29.36 25.68 -28 25 C-28.66 24.67 -29.32 24.34 -30 24 Z M-35 28 C-35.99 29.485 -35.99 29.485 -37 31 C-35.68 30.34 -34.36 29.68 -33 29 C-33.66 28.67 -34.32 28.34 -35 28 Z M-91 49 C-91.33 50.65 -91.66 52.3 -92 54 C-90.68 53.67 -89.36 53.34 -88 53 C-88 52.01 -88 51.02 -88 50 C-88.99 49.67 -89.98 49.34 -91 49 Z " fill="#2AACD6" transform="translate(182,184)"/>
<path d="M0 0 C8.98872355 4.14864164 13.43210488 14.26412485 17.6875 22.6875 C18.72588988 24.71779207 19.76496933 26.74773158 20.8046875 28.77734375 C21.32901367 29.80456543 21.85333984 30.83178711 22.39355469 31.89013672 C23.98300871 34.96710714 25.61197337 38.01927251 27.2578125 41.06640625 C27.77126221 42.02264893 28.28471191 42.9788916 28.8137207 43.96411133 C29.79716162 45.79210356 30.78766397 47.61631801 31.78588867 49.4362793 C32.22392822 50.25652588 32.66196777 51.07677246 33.11328125 51.921875 C33.50298096 52.63956055 33.89268066 53.35724609 34.29418945 54.09667969 C35 56 35 56 34 59 C31.53571799 60.39079213 29.12126682 61.62277144 26.5625 62.8125 C20.7896166 65.57112641 15.33551862 68.48570862 10.015625 72.06640625 C8 73 8 73 6.00561523 72.7722168 C3.48435336 71.80146192 3.06101858 70.97765141 1.89453125 68.578125 C1.37922852 67.53398437 1.37922852 67.53398437 0.85351562 66.46875 C0.50998047 65.7365625 0.16644531 65.004375 -0.1875 64.25 C-0.54263672 63.53328125 -0.89777344 62.8165625 -1.26367188 62.078125 C-3.03827277 58.41443282 -4.46209098 55.07847433 -5 51 C-5.66 51 -6.32 51 -7 51 C-7.34804687 52.46373047 -7.34804687 52.46373047 -7.703125 53.95703125 C-9.03065413 58.59290272 -11.34197354 62.53666494 -13.75 66.6875 C-16.75348962 71.9607242 -19.67023212 77.22359357 -22.3125 82.6875 C-25.06350472 88.29053504 -27.69597355 93.46398237 -33 97 C-39.79936667 97.9569479 -45.74122626 97.68820345 -51.37890625 93.5625 C-54.80938058 90.25601872 -57.58266094 85.80365778 -58 81 C-56.9726204 78.63582531 -55.90486268 76.53331005 -54.625 74.3125 C-53.87831501 72.96647364 -53.13224453 71.62010626 -52.38671875 70.2734375 C-51.79769775 69.2230127 -51.79769775 69.2230127 -51.19677734 68.15136719 C-49.22536261 64.60748578 -47.33160306 61.02313043 -45.4375 57.4375 C-45.05730713 56.72037842 -44.67711426 56.00325684 -44.28540039 55.2644043 C-41.98536938 50.91276736 -39.74948296 46.53490227 -37.5625 42.125 C-15.81002407 -1.68347478 -15.81002407 -1.68347478 0 0 Z " fill="#255CAA" transform="translate(126,123)"/>
<path d="M0 0 C2.125 1.0625 2.125 1.0625 3.125 2.0625 C3.49586093 7.9035596 3.49586093 7.9035596 3.125 10.0625 C-0.5191774 12.4919516 -2.58741272 12.22429575 -6.875 12.0625 C-7.205 14.0425 -7.535 16.0225 -7.875 18.0625 C-6.55048828 17.93681641 -6.55048828 17.93681641 -5.19921875 17.80859375 C2.41622009 17.16238573 9.54672861 17.12228942 17.125 18.0625 C17.36210693 18.63282959 17.59921387 19.20315918 17.84350586 19.79077148 C18.91395634 22.36158382 19.98817581 24.9308042 21.0625 27.5 C21.43568359 28.39783203 21.80886719 29.29566406 22.19335938 30.22070312 C22.55107422 31.07470703 22.90878906 31.92871094 23.27734375 32.80859375 C23.7722229 33.99473267 23.7722229 33.99473267 24.27709961 35.20483398 C24.98221491 37.03626797 24.98221491 37.03626797 26.125 38.0625 C26.3516333 37.46187744 26.5782666 36.86125488 26.81176758 36.24243164 C27.84199562 33.53201013 28.88947067 30.8285853 29.9375 28.125 C30.29392578 27.17947266 30.65035156 26.23394531 31.01757812 25.25976562 C31.36884766 24.36064453 31.72011719 23.46152344 32.08203125 22.53515625 C32.40147705 21.70250244 32.72092285 20.86984863 33.05004883 20.01196289 C34.125 18.0625 34.125 18.0625 37.125 17.0625 C38.85295352 16.99447033 40.58335365 16.97754355 42.3125 17 C43.21355469 17.00902344 44.11460937 17.01804688 45.04296875 17.02734375 C45.73003906 17.03894531 46.41710937 17.05054688 47.125 17.0625 C48.41049306 20.0050159 48.07210424 21.22214207 47.04296875 24.328125 C46.47737366 25.66107019 45.89956699 26.98887126 45.3125 28.3125 C44.6624579 29.83190186 44.01273763 31.35144144 43.36328125 32.87109375 C43.00572754 33.69722168 42.64817383 34.52334961 42.27978516 35.37451172 C40.14005164 40.35515992 38.07779625 45.36828088 36 50.375 C34.78760367 53.2839834 33.57386792 56.19239698 32.35839844 59.10009766 C31.48123075 61.20689749 30.61012005 63.31622359 29.74316406 65.42724609 C29.06979004 67.06234131 29.06979004 67.06234131 28.3828125 68.73046875 C27.77010498 70.22549927 27.77010498 70.22549927 27.14501953 71.75073242 C26.125 74.0625 26.125 74.0625 25.125 75.0625 C22.77186445 75.13521741 20.41666332 75.14620868 18.0625 75.125 C16.12697266 75.11146484 16.12697266 75.11146484 14.15234375 75.09765625 C13.15332031 75.08605469 12.15429688 75.07445312 11.125 75.0625 C11.72659308 71.18012605 12.94860322 68.22699769 14.75 64.75 C17.07854583 59.68676662 17.99801598 56.36937862 16.125 51.0625 C15.06095115 48.69891608 13.89135277 46.42204315 12.66796875 44.13671875 C10.66838045 40.1527289 8.99117049 36.06497911 7.3125 31.9375 C6.84142822 30.78036499 6.84142822 30.78036499 6.36083984 29.59985352 C5.61255408 27.75528553 4.86833954 25.90906681 4.125 24.0625 C3.135 26.5375 3.135 26.5375 2.125 29.0625 C-0.845 29.0625 -3.815 29.0625 -6.875 29.0625 C-6.86714478 30.37238892 -6.86714478 30.37238892 -6.85913086 31.70874023 C-6.84212249 34.93839273 -6.82956631 38.16802245 -6.82006836 41.39770508 C-6.8150292 42.79745228 -6.80819784 44.1971942 -6.79956055 45.59692383 C-6.7874768 47.60495777 -6.78230193 49.61302957 -6.77734375 51.62109375 C-6.76948853 53.43565063 -6.76948853 53.43565063 -6.76147461 55.28686523 C-6.875 58.0625 -6.875 58.0625 -7.875 59.0625 C-12.165 59.0625 -16.455 59.0625 -20.875 59.0625 C-20.875 49.1625 -20.875 39.2625 -20.875 29.0625 C-22.855 29.0625 -24.835 29.0625 -26.875 29.0625 C-26.875 25.4325 -26.875 21.8025 -26.875 18.0625 C-24.895 18.0625 -22.915 18.0625 -20.875 18.0625 C-20.92140625 17.48242188 -20.9678125 16.90234375 -21.015625 16.3046875 C-21.27606454 10.66803166 -20.82341929 7.41588537 -16.875 3.0625 C-11.57304125 -1.15019495 -6.58076664 -2.14590217 0 0 Z " fill="#262F56" transform="translate(518.875,164.9375)"/>
<path d="M0 0 C2 2 2 2 2.1953125 4.1640625 C2.17210937 4.97617188 2.14890625 5.78828125 2.125 6.625 C2.10695313 7.44226563 2.08890625 8.25953125 2.0703125 9.1015625 C2.04710937 9.72804687 2.02390625 10.35453125 2 11 C0.02 11.33 -1.96 11.66 -4 12 C-4 12.66 -4 13.32 -4 14 C-4.66 14 -5.32 14 -6 14 C-6 14.99 -6 15.98 -6 17 C-6.99 17 -7.98 17 -9 17 C-9 17.66 -9 18.32 -9 19 C-10.65 19 -12.3 19 -14 19 C-13.505 19.99 -13.505 19.99 -13 21 C-14.65 21.33 -16.3 21.66 -18 22 C-18.103125 22.639375 -18.20625 23.27875 -18.3125 23.9375 C-18.539375 24.618125 -18.76625 25.29875 -19 26 C-22 27 -22 27 -25 26 C-25.33 26.66 -25.66 27.32 -26 28 C-28 29.66666667 -30 31.33333333 -32 33 C-32.495 33.99 -32.495 33.99 -33 35 C-33.66 35 -34.32 35 -35 35 C-34.79697266 36.32451172 -34.79697266 36.32451172 -34.58984375 37.67578125 C-35 41 -35 41 -37.81640625 43.66796875 C-39.05090989 44.5285411 -40.30044394 45.36786684 -41.5625 46.1875 C-42.17158203 46.61224609 -42.78066406 47.03699219 -43.40820312 47.47460938 C-53.52958925 54.36143612 -62.90098858 55.76183743 -75 55 C-78.03454561 54.22834488 -80.73018302 53.26981698 -83 51 C-85.00870667 41.86763257 -80.28146678 34.59348438 -76.02978516 26.91699219 C-75.10215437 25.19016504 -74.26922052 23.41326974 -73.44921875 21.6328125 C-71.21173177 16.88051621 -69.62504423 13.67410887 -64.5625 11.75 C-57.03841628 10.07658339 -51.47979268 12.38141448 -45 16 C-44.67 15.01 -44.34 14.02 -44 13 C-39.545 13.99 -39.545 13.99 -35 15 C-35.99 18.3 -36.98 21.6 -38 25 C-34.04 24.505 -34.04 24.505 -30 24 C-30 21.69 -30 19.38 -30 17 C-28.35 16.34 -26.7 15.68 -25 15 C-25 14.34 -25 13.68 -25 13 C-24.34 13 -23.68 13 -23 13 C-22.79375 12.4225 -22.5875 11.845 -22.375 11.25 C-20.47694443 8.14409089 -18.08445075 6.89812354 -15 5 C-13.948125 4.278125 -12.89625 3.55625 -11.8125 2.8125 C-7.74573504 0.19169591 -4.78214295 -0.30524317 0 0 Z " fill="#1F83BE" transform="translate(126,214)"/>
<path d="M0 0 C2.7885289 -0.22107787 5.34653181 -0.28107535 8.125 -0.1875 C8.87910156 -0.17396484 9.63320312 -0.16042969 10.41015625 -0.14648438 C12.27374127 -0.11109985 14.13695978 -0.05729167 16 0 C16.31453125 0.83402344 16.6290625 1.66804687 16.953125 2.52734375 C19.77851585 9.95676006 22.75665248 17.24623978 26.1484375 24.43359375 C29.02859647 30.60667333 31.52159614 36.85962566 33.85693359 43.25415039 C35.4364947 47.56956324 37.15674089 51.78995257 39 56 C38 57 38 57 34.62109375 57.09765625 C33.22652923 57.09098369 31.83198257 57.07902532 30.4375 57.0625 C29.72658203 57.05798828 29.01566406 57.05347656 28.28320312 57.04882812 C26.52209987 57.03700864 24.76103964 57.01907263 23 57 C21.68 53.7 20.36 50.4 19 47 C11.41 46.67 3.82 46.34 -4 46 C-4.99 48.97 -5.98 51.94 -7 55 C-7.33 55.66 -7.66 56.32 -8 57 C-12.95 57 -17.9 57 -23 57 C-22.33402631 53.67013153 -21.82177587 51.24463248 -20.58886719 48.22631836 C-20.3047699 47.52466049 -20.02067261 46.82300262 -19.72796631 46.1000824 C-19.42070618 45.35420364 -19.11344604 44.60832489 -18.796875 43.83984375 C-18.47720764 43.05412491 -18.15754028 42.26840607 -17.82818604 41.45887756 C-16.80625627 38.9500428 -15.77817985 36.44377886 -14.75 33.9375 C-14.07382343 32.27945804 -13.3980384 30.62125634 -12.72265625 28.96289062 C-11.11264428 25.0133085 -9.49444021 21.0671615 -7.87182617 17.1227417 C-7.06794381 15.1654311 -6.26870514 13.20629542 -5.47070312 11.24658203 C-4.81231445 9.64145752 -4.81231445 9.64145752 -4.140625 8.00390625 C-3.76969727 7.09584229 -3.39876953 6.18777832 -3.01660156 5.25219727 C-2 3 -2 3 0 0 Z M7 18 C4.03 25.92 4.03 25.92 1 34 C5.62 34 10.24 34 15 34 C14.236875 31.916875 13.47375 29.83375 12.6875 27.6875 C12.04361328 25.92986328 12.04361328 25.92986328 11.38671875 24.13671875 C10.11826708 20.75745374 10.11826708 20.75745374 7 18 Z " fill="#2B3359" transform="translate(228,167)"/>
<path d="M0 0 C0 1.32 0 2.64 0 4 C-2.55956342 6.40900086 -5.28258287 8.17933144 -8.25 10.0625 C-11.25355341 11.77166117 -11.25355341 11.77166117 -12 15 C-12 15.99 -12 16.98 -12 18 C-13.65 18 -15.3 18 -17 18 C-16.67 17.34 -16.34 16.68 -16 16 C-19.62841271 17.70607485 -22.60135867 19.84681434 -25.76171875 22.29296875 C-27.31868207 23.48039103 -28.90781001 24.62631853 -30.51953125 25.73828125 C-35.50226059 29.03949051 -35.50226059 29.03949051 -37.6875 34.3125 C-37.21009434 37.12977392 -37.21009434 37.12977392 -35 39 C-35.66 39.99 -36.32 40.98 -37 42 C-38.32 39.36 -39.64 36.72 -41 34 C-47.35407657 38.5586361 -53.61367146 43.21044733 -59.79833984 47.99658203 C-66.16441805 52.91556934 -72.60370157 57.73737441 -79.05712891 62.54101562 C-80.44238227 63.58126118 -81.81875356 64.63337884 -83.18896484 65.69335938 C-83.90391113 66.24314453 -84.61885742 66.79292969 -85.35546875 67.359375 C-86.00539795 67.86436523 -86.65532715 68.36935547 -87.32495117 68.88964844 C-89 70 -89 70 -91 70 C-91 68.35 -91 66.7 -91 65 C-90.34 65 -89.68 65 -89 65 C-88.79375 64.443125 -88.5875 63.88625 -88.375 63.3125 C-86.42923508 60.04007718 -84.09592257 58.18535711 -81 56 C-78.125 55.6875 -78.125 55.6875 -76 56 C-75.7525 55.4225 -75.505 54.845 -75.25 54.25 C-73.77179527 51.58923149 -72.41685961 49.86443456 -70 48 C-67.25 48.25 -67.25 48.25 -65 49 C-65 48.34 -65 47.68 -65 47 C-64.01 47 -63.02 47 -62 47 C-61.938125 46.21625 -61.87625 45.4325 -61.8125 44.625 C-61.544375 43.75875 -61.27625 42.8925 -61 42 C-57.19047619 40 -57.19047619 40 -55 40 C-55 37.36 -55 34.72 -55 32 C-58.85475203 30.61228927 -62.05516225 31.10030016 -66 32 C-68.64211573 33.82012417 -70.7386115 35.7386115 -73 38 C-73.845625 38.495 -74.69125 38.99 -75.5625 39.5 C-78.10406871 40.76866837 -78.10406871 40.76866837 -79 43 C-79.66 43 -80.32 43 -81 43 C-81 43.66 -81 44.32 -81 45 C-81.639375 45.185625 -82.27875 45.37125 -82.9375 45.5625 C-83.618125 46.036875 -84.29875 46.51125 -85 47 C-85.40729228 49.32156597 -85.74438677 51.6568787 -86 54 C-88.70879335 55.35439668 -91.00933268 55.06501451 -94 55 C-93.67 52.36 -93.34 49.72 -93 47 C-92.34 47 -91.68 47 -91 47 C-91 46.34 -91 45.68 -91 45 C-92.11375 44.855625 -93.2275 44.71125 -94.375 44.5625 C-98 44 -98 44 -100 43 C-99.505 44.98 -99.505 44.98 -99 47 C-102.07853154 46.06928116 -104.71985579 45.17957962 -107.4375 43.4375 C-110.6368313 41.64275317 -113.36381633 41.27442896 -117 41 C-117.99 41.495 -117.99 41.495 -119 42 C-122.59653181 42.27143636 -125.37987425 42.20670858 -128.8125 41.0625 C-132.14411634 37.92126173 -132.69364946 34.48037659 -133 30 C-132.36229085 26.17374508 -131.75107305 24.6437769 -128.8125 22.125 C-125.19185181 20.67674072 -122.87352475 20.4563474 -119 21 C-114.62215456 23.69405873 -113.33182255 24.80934261 -111.9375 29.8125 C-110.18305558 35.39482314 -105.13034135 37.65753814 -100.421875 40.53125 C-96.42334423 42.24751435 -94.31123538 42.63563086 -90 42 C-86.74005651 40.56574303 -83.76950874 38.75569322 -80.75 36.875 C-79.05261194 35.85458893 -77.35469881 34.83505076 -75.65625 33.81640625 C-74.84800781 33.32543457 -74.03976563 32.83446289 -73.20703125 32.32861328 C-68.88983038 29.72969656 -64.44559512 27.36970659 -60 25 C-58.28296875 24.08154297 -58.28296875 24.08154297 -56.53125 23.14453125 C-53.99234178 21.78761442 -51.45180763 20.43380228 -48.91015625 19.08203125 C-46.29034985 17.68843341 -43.67334749 16.28977316 -41.05859375 14.88671875 C-37.37847767 12.91285509 -33.69135949 10.95276697 -30 9 C-29.08347656 8.51402344 -28.16695313 8.02804688 -27.22265625 7.52734375 C-7.68959108 -2.56319703 -7.68959108 -2.56319703 0 0 Z M-91 49 C-91.33 50.65 -91.66 52.3 -92 54 C-90.68 53.67 -89.36 53.34 -88 53 C-88 52.01 -88 51.02 -88 50 C-88.99 49.67 -89.98 49.34 -91 49 Z " fill="#4AD1E7" transform="translate(182,184)"/>
<path d="M0 0 C4.84974831 2.87088695 7.74237782 7.16463345 9.5 12.4375 C9.59338218 14.31063664 9.62994843 16.18704362 9.625 18.0625 C9.62886719 19.53589844 9.62886719 19.53589844 9.6328125 21.0390625 C9.5 23.4375 9.5 23.4375 8.5 24.4375 C6.50035018 24.52508003 4.4976389 24.54446576 2.49609375 24.53515625 C1.28115234 24.53193359 0.06621094 24.52871094 -1.18554688 24.52539062 C-2.46494141 24.51701172 -3.74433594 24.50863281 -5.0625 24.5 C-6.34576172 24.49548828 -7.62902344 24.49097656 -8.95117188 24.48632812 C-12.13416022 24.47449545 -15.31705762 24.45801068 -18.5 24.4375 C-14.62354177 28.53517844 -14.62354177 28.53517844 -9.25 29.625 C-5.54304411 29.61146913 -5.54304411 29.61146913 -2.375 28.375 C0.7674751 27.35027986 2.37399551 27.51808691 5.5 28.4375 C6.16 31.0775 6.82 33.7175 7.5 36.4375 C0.63129483 41.38935722 -6.82964792 42.05275814 -15.1640625 41.1484375 C-21.9783026 39.80382156 -26.54343776 37.30412676 -30.5 31.4375 C-33.37375579 25.40261284 -33.55088416 18.31263533 -31.8125 11.90234375 C-29.38177367 5.83565594 -26.16839588 2.20307149 -20.203125 -0.66796875 C-13.90710977 -2.75147668 -6.10500464 -2.7094592 0 0 Z M-18.5 12.4375 C-18.5 13.0975 -18.5 13.7575 -18.5 14.4375 C-13.55 14.4375 -8.6 14.4375 -3.5 14.4375 C-5.07836298 10.75372777 -5.07836298 10.75372777 -6.5 9.4375 C-8.53270562 9.19929079 -8.53270562 9.19929079 -10.875 9.1875 C-11.66648437 9.16171875 -12.45796875 9.1359375 -13.2734375 9.109375 C-15.99778182 9.51085732 -16.86347004 10.26249889 -18.5 12.4375 Z " fill="#333A5E" transform="translate(379.5,183.5625)"/>
<path d="M0 0 C0.32613618 4.67461851 -0.29417212 7.16674383 -3 11 C-3.763125 10.690625 -4.52625 10.38125 -5.3125 10.0625 C-10.17314841 8.66197419 -14.96858173 8.34020266 -20 8 C-20 8.99 -20 9.98 -20 11 C-19.13117188 11.18175781 -18.26234375 11.36351562 -17.3671875 11.55078125 C-2.13968668 14.87221599 -2.13968668 14.87221599 1.4375 20.25 C3.38120073 24.08880894 3.15766834 26.83239396 2 31 C0.11458852 35.14790526 -1.87303155 37.08047979 -6 39 C-14.8660951 41.21652377 -24.9349952 40.68755357 -33.0625 36.375 C-33.701875 35.92125 -34.34125 35.4675 -35 35 C-34.39009109 31.44219804 -33.4216319 28.3171411 -32 25 C-29.40125125 25.44549979 -27.19408057 25.9057323 -24.8125 27.0625 C-20.58313778 28.47228741 -16.41938194 28.15446383 -12 28 C-12 27.34 -12 26.68 -12 26 C-15.122287 24.5899349 -18.09049347 23.75821745 -21.4375 23.125 C-26.3559372 22.0757334 -30.25756063 20.29685189 -33.375 16.1875 C-34.6985768 11.55498119 -34.56374697 7.5663726 -32.4375 3.25 C-30.564253 0.38541267 -28.6336998 -1.41400718 -25.3125 -2.56640625 C-16.48212946 -4.22210073 -8.24410185 -3.41135249 0 0 Z " fill="#333A5E" transform="translate(302,185)"/>
<path d="M0 0 C1.57421875 1.16796875 1.57421875 1.16796875 2.57421875 4.16796875 C1.50166998 6.68495507 0.02618423 8.8360242 -1.42578125 11.16796875 C-2.18890625 10.83796875 -2.95203125 10.50796875 -3.73828125 10.16796875 C-8.67752776 8.82851207 -13.34041234 9.00509217 -18.42578125 9.16796875 C-16.01407527 11.57967473 -14.46212068 11.8108211 -11.17578125 12.60546875 C-5.02278436 14.21620092 0.06151159 15.5555981 3.57421875 21.16796875 C4.48085353 25.36379015 4.42643866 29.40219493 2.54296875 33.3046875 C-0.53057837 37.37713744 -3.71247385 39.25477473 -8.734375 40.01953125 C-17.80760751 40.51994175 -25.61584029 40.01013215 -33.42578125 35.16796875 C-32.81587234 31.61016679 -31.84741315 28.48510985 -30.42578125 25.16796875 C-29.80832031 25.38453125 -29.19085938 25.60109375 -28.5546875 25.82421875 C-22.58937818 27.78541633 -17.69697758 28.47141373 -11.42578125 28.16796875 C-11.09578125 27.50796875 -10.76578125 26.84796875 -10.42578125 26.16796875 C-13.54806825 24.75790365 -16.51627472 23.9261862 -19.86328125 23.29296875 C-24.77083784 22.24602334 -28.62694559 20.45739596 -31.80078125 16.41796875 C-33.21751746 11.31771841 -33.08351264 7.5623593 -30.86328125 2.85546875 C-23.13836134 -5.66175064 -9.72646041 -4.69243284 0 0 Z " fill="#2E365A" transform="translate(340.42578125,184.83203125)"/>
<path d="M0 0 C0.3125 2.1875 0.3125 2.1875 0 5 C-2.5 7.8125 -2.5 7.8125 -5 10 C-5.54140625 9.67257813 -6.0828125 9.34515625 -6.640625 9.0078125 C-9.50719067 7.78335233 -11.6452987 7.80107854 -14.75 7.875 C-15.73484375 7.89304688 -16.7196875 7.91109375 -17.734375 7.9296875 C-18.48203125 7.95289063 -19.2296875 7.97609375 -20 8 C-20.33 8.66 -20.66 9.32 -21 10 C-20.28714844 10.10957031 -19.57429688 10.21914062 -18.83984375 10.33203125 C-12.0256396 11.46008927 -6.39665604 12.67597218 -0.625 16.625 C1.83607941 20.22196222 2.17984863 23.69112652 2 28 C0.79661692 31.75172372 -0.56603961 33.57745962 -3.375 36.3125 C-11.61220972 40.14706314 -21.43677693 39.76951824 -30 37 C-33.125 35.375 -33.125 35.375 -35 34 C-34.25 27.375 -34.25 27.375 -32 24 C-31.38253906 24.2165625 -30.76507813 24.433125 -30.12890625 24.65625 C-24.16359693 26.61744758 -19.27119633 27.30344498 -13 27 C-12.67 26.01 -12.34 25.02 -12 24 C-12.7734375 23.91363281 -13.546875 23.82726562 -14.34375 23.73828125 C-21.14944165 22.82018671 -26.80047138 21.7055734 -32 17 C-34.60405957 13.37009878 -35.04803706 11.72055597 -34.75 7.25 C-34 4 -34 4 -33 2 C-32.34 2 -31.68 2 -31 2 C-30.67 1.01 -30.34 0.02 -30 -1 C-20.9263769 -6.69739125 -8.92336489 -5.28791993 0 0 Z " fill="#2B3258" transform="translate(427,186)"/>
<path d="M0 0 C1.57421875 1.16796875 1.57421875 1.16796875 2.57421875 4.16796875 C1.50166998 6.68495507 0.02618423 8.8360242 -1.42578125 11.16796875 C-2.12058594 10.85085937 -2.81539063 10.53375 -3.53125 10.20703125 C-6.68766769 9.07395823 -9.39858292 8.76316864 -12.73828125 8.54296875 C-14.34123047 8.43082031 -14.34123047 8.43082031 -15.9765625 8.31640625 C-16.78480469 8.26742187 -17.59304688 8.2184375 -18.42578125 8.16796875 C-18.42578125 9.15796875 -18.42578125 10.14796875 -18.42578125 11.16796875 C-17.37390625 11.31492188 -17.37390625 11.31492188 -16.30078125 11.46484375 C-9.13553386 12.59414904 -2.55302229 13.84527514 2.57421875 19.29296875 C4.07876662 23.61854387 4.38425865 27.64958108 3.57421875 32.16796875 C0.60400409 36.0212202 -2.5300698 38.86228836 -7.4296875 39.65234375 C-24.38202725 40.91772147 -24.38202725 40.91772147 -31.55078125 36.04296875 C-32.16953125 35.42421875 -32.78828125 34.80546875 -33.42578125 34.16796875 C-32.43578125 31.19796875 -31.44578125 28.22796875 -30.42578125 25.16796875 C-28.98203125 25.66296875 -27.53828125 26.15796875 -26.05078125 26.66796875 C-20.74319321 28.28299197 -15.9332236 28.48435374 -10.42578125 28.16796875 C-10.42578125 27.50796875 -10.42578125 26.84796875 -10.42578125 26.16796875 C-13.55926417 24.75284743 -16.57052268 23.89703932 -19.92578125 23.23046875 C-24.78198862 22.18178609 -28.05031787 20.87544053 -31.23828125 16.91796875 C-32.75685451 13.40127278 -32.83296608 10.96836048 -32.42578125 7.16796875 C-30.48775861 3.10734989 -28.32604884 0.09085856 -24.24609375 -1.890625 C-16.29912245 -4.54328439 -7.45782331 -3.59795172 0 0 Z " fill="#2C3358" transform="translate(464.42578125,184.83203125)"/>
<path d="M0 0 C4.29 0 8.58 0 13 0 C13.1680811 5.03519139 13.32859004 10.07054682 13.48217773 15.10620117 C13.5354494 16.8181808 13.59076646 18.53009808 13.64819336 20.24194336 C13.73052001 22.70673178 13.80541647 25.17165294 13.87890625 27.63671875 C13.90594131 28.39836838 13.93297638 29.16001801 13.96083069 29.94474792 C14.07122132 33.90179981 13.78669246 37.06653772 13 41 C8.71 41 4.42 41 0 41 C0 27.47 0 13.94 0 0 Z " fill="#262C53" transform="translate(474,183)"/>
<path d="M0 0 C0.3125 2.1875 0.3125 2.1875 0 5 C-2.5 7.8125 -2.5 7.8125 -5 10 C-5.54140625 9.67257813 -6.0828125 9.34515625 -6.640625 9.0078125 C-9.50719067 7.78335233 -11.6452987 7.80107854 -14.75 7.875 C-15.73484375 7.89304688 -16.7196875 7.91109375 -17.734375 7.9296875 C-18.48203125 7.95289063 -19.2296875 7.97609375 -20 8 C-20.33 8.66 -20.66 9.32 -21 10 C-20.01 10.33 -19.02 10.66 -18 11 C-18.804375 11.144375 -19.60875 11.28875 -20.4375 11.4375 C-22.92103706 11.74135249 -22.92103706 11.74135249 -24 13 C-24.66 13.33 -25.32 13.66 -26 14 C-26.33 14.99 -26.66 15.98 -27 17 C-25.02 17.99 -23.04 18.98 -21 20 C-21 20.66 -21 21.32 -21 22 C-25.54384397 21.46543012 -28.44609684 19.85857428 -32 17 C-34.4870598 13.3897519 -35.04344317 11.65164752 -34.75 7.25 C-34 4 -34 4 -33 2 C-32.34 2 -31.68 2 -31 2 C-30.67 1.01 -30.34 0.02 -30 -1 C-20.9263769 -6.69739125 -8.92336489 -5.28791993 0 0 Z " fill="#2D3459" transform="translate(427,186)"/>
<path d="M0 0 C3.8308364 2.16839796 5.47614695 3.35825957 6.81640625 7.55859375 C7.31926904 10.03774245 7.71697877 12.48696666 8 15 C8.99 15.33 9.98 15.66 11 16 C11 16.66 11 17.32 11 18 C10.06027344 18.19916016 10.06027344 18.19916016 9.1015625 18.40234375 C8.28429687 18.57894531 7.46703125 18.75554687 6.625 18.9375 C5.81289062 19.11152344 5.00078125 19.28554687 4.1640625 19.46484375 C1.970537 19.92330693 1.970537 19.92330693 0 21 C-3.59653181 21.27143636 -6.37987425 21.20670858 -9.8125 20.0625 C-13.14411634 16.92126173 -13.69364946 13.48037659 -14 9 C-13.36229085 5.17374508 -12.75107305 3.6437769 -9.8125 1.125 C-6.19185181 -0.32325928 -3.87352475 -0.5436526 0 0 Z " fill="#2E9ACB" transform="translate(63,205)"/>
<path d="M0 0 C3.23386438 2.69983173 4.77411642 6.21858858 6.5625 9.9375 C7.26393852 11.36997996 7.96578157 12.80226188 8.66796875 14.234375 C9.04099121 14.99943359 9.41401367 15.76449219 9.79833984 16.55273438 C11.07498469 19.15271161 12.37258001 21.74136172 13.67578125 24.328125 C14.12429443 25.21894775 14.57280762 26.10977051 15.03491211 27.02758789 C15.9137644 28.77200321 16.79345549 30.51599625 17.67407227 32.25952148 C19.61226815 36.12161351 21.4958807 39.94218363 23 44 C17.06944427 47.43595689 11.03740623 50.6438952 4.96484375 53.8203125 C4.23910156 54.201875 3.51335937 54.5834375 2.765625 54.9765625 C2.11368164 55.31768066 1.46173828 55.65879883 0.79003906 56.01025391 C-0.85711354 56.9209954 -2.43394037 57.95596025 -4 59 C-6.1875 58.625 -6.1875 58.625 -8 58 C-8.33 56.68 -8.66 55.36 -9 54 C-7.02 54.66 -5.04 55.32 -3 56 C-3.33 54.35 -3.66 52.7 -4 51 C-3.01 50.34 -2.02 49.68 -1 49 C-0.67 48.34 -0.34 47.68 0 47 C3 47 6 47 9 47 C11.00309329 46.68578929 13.00371336 46.3548954 15 46 C14.835 45.175 14.67 44.35 14.5 43.5 C13.94103955 39.58727683 13.93192813 35.94816827 14 32 C12.02 32.495 12.02 32.495 10 33 C9.87625 31.865625 9.7525 30.73125 9.625 29.5625 C9.41875 28.386875 9.2125 27.21125 9 26 C8.34 25.67 7.68 25.34 7 25 C7.66 23.02 8.32 21.04 9 19 C8.01 18.67 7.02 18.34 6 18 C6 17.01 6 16.02 6 15 C5.34 15 4.68 15 4 15 C3.32532438 13.25307205 2.66055844 11.50231475 2 9.75 C1.62875 8.77546875 1.2575 7.8009375 0.875 6.796875 C0 4 0 4 0 0 Z " fill="#349CC7" transform="translate(138,137)"/>
<path d="M0 0 C0 1.32 0 2.64 0 4 C-2.55956342 6.40900086 -5.28258287 8.17933144 -8.25 10.0625 C-11.25355341 11.77166117 -11.25355341 11.77166117 -12 15 C-12 15.99 -12 16.98 -12 18 C-13.65 18 -15.3 18 -17 18 C-16.67 17.34 -16.34 16.68 -16 16 C-16.99 16.33 -17.98 16.66 -19 17 C-19 16.01 -19 15.02 -19 14 C-19.66 14 -20.32 14 -21 14 C-21.2475 13.360625 -21.495 12.72125 -21.75 12.0625 C-22.81562433 9.81258459 -22.81562433 9.81258459 -25.125 9.25 C-25.74375 9.1675 -26.3625 9.085 -27 9 C-27.268125 9.78375 -27.53625 10.5675 -27.8125 11.375 C-29 14 -29 14 -32 16 C-32 15.34 -32 14.68 -32 14 C-32.53109375 14.22816406 -33.0621875 14.45632812 -33.609375 14.69140625 C-34.66898438 15.12259766 -34.66898438 15.12259766 -35.75 15.5625 C-36.44609375 15.85253906 -37.1421875 16.14257812 -37.859375 16.44140625 C-40.30012784 17.07831803 -41.6403655 16.80248831 -44 16 C-43.10539063 15.55269531 -42.21078125 15.10539062 -41.2890625 14.64453125 C-40.70874268 14.35425049 -40.12842285 14.06396973 -39.53051758 13.76489258 C-38.24949426 13.12462711 -36.9680746 12.4851541 -35.6862793 11.84643555 C-32.8579102 10.435973 -30.03574578 9.01855352 -27.23046875 7.5625 C-7.66161336 -2.55387112 -7.66161336 -2.55387112 0 0 Z " fill="#79E2ED" transform="translate(182,184)"/>
<path d="M0 0 C0.61746094 0.2165625 1.23492187 0.433125 1.87109375 0.65625 C7.55558695 2.52512448 12.99193252 3.94605562 19 3 C19.99 2.34 20.98 1.68 22 1 C21.67 2.32 21.34 3.64 21 5 C21.66 5.33 22.32 5.66 23 6 C22.505 6.433125 22.01 6.86625 21.5 7.3125 C19.66781808 8.99740483 19.66781808 8.99740483 20 12 C22.97 12.495 22.97 12.495 26 13 C26 13.33 26 13.66 26 14 C5.44350412 16.19190302 5.44350412 16.19190302 -3 10 C-2.39009109 6.44219804 -1.4216319 3.3171411 0 0 Z " fill="#283056" transform="translate(310,210)"/>
<path d="M0 0 C2.125 1.0625 2.125 1.0625 3.125 2.0625 C3.49586093 7.9035596 3.49586093 7.9035596 3.125 10.0625 C-0.5191774 12.4919516 -2.58741272 12.22429575 -6.875 12.0625 C-7.205 12.7225 -7.535 13.3825 -7.875 14.0625 C-7.875 13.4025 -7.875 12.7425 -7.875 12.0625 C-9.298125 12.3409375 -9.298125 12.3409375 -10.75 12.625 C-13.875 13.0625 -13.875 13.0625 -15.875 12.0625 C-15.875 11.4025 -15.875 10.7425 -15.875 10.0625 C-17.525 10.7225 -19.175 11.3825 -20.875 12.0625 C-20.36930263 7.63764805 -18.97558108 5.24688057 -15.875 2.0625 C-10.60096198 -1.3363245 -5.99039601 -1.95339 0 0 Z " fill="#343B61" transform="translate(518.875,164.9375)"/>
<path d="M0 0 C0.33 0 0.66 0 1 0 C1.30357422 1.34964844 1.30357422 1.34964844 1.61328125 2.7265625 C3.38655134 6.91247894 5.32217023 8.05313333 9.1875 10.375 C10.29480469 11.06335938 11.40210937 11.75171875 12.54296875 12.4609375 C17.02404982 14.45590467 20.58193174 14.72912791 25.29296875 13.30859375 C26.23076172 12.87740234 26.23076172 12.87740234 27.1875 12.4375 C30.23979237 11.03879168 31.79544422 10.92707778 35 12 C34.67 12.99 34.34 13.98 34 15 C33.34 15 32.68 15 32 15 C32 15.66 32 16.32 32 17 C31.360625 17.185625 30.72125 17.37125 30.0625 17.5625 C29.381875 18.036875 28.70125 18.51125 28 19 C27.59270772 21.32156597 27.25561323 23.6568787 27 26 C24.29120665 27.35439668 21.99066732 27.06501451 19 27 C19.33 24.36 19.66 21.72 20 19 C20.66 19 21.32 19 22 19 C22 18.34 22 17.68 22 17 C20.88625 16.855625 19.7725 16.71125 18.625 16.5625 C15 16 15 16 13 15 C13.33 16.32 13.66 17.64 14 19 C10.89916929 18.06253955 8.21175817 17.12912083 5.4375 15.4375 C2.90783303 13.94564512 0.88701072 13.4124301 -2 13 C-1.67 12.34 -1.34 11.68 -1 11 C0.98 11 2.96 11 5 11 C5 10.34 5 9.68 5 9 C4.360625 8.87625 3.72125 8.7525 3.0625 8.625 C2.381875 8.41875 1.70125 8.2125 1 8 C-0.35439668 5.29120665 -0.06501451 2.99066732 0 0 Z M22 21 C21.67 22.65 21.34 24.3 21 26 C22.32 25.67 23.64 25.34 25 25 C25 24.01 25 23.02 25 22 C24.01 21.67 23.02 21.34 22 21 Z " fill="#4BADD4" transform="translate(69,212)"/>
<path d="M0 0 C1.94140625 0.3828125 1.94140625 0.3828125 4.44140625 2.0078125 C6.39703107 5.10421846 6.54165102 6.78134385 5.94140625 10.3828125 C4.44140625 12.7578125 4.44140625 12.7578125 1.94140625 14.3828125 C-1.02175425 14.96709767 -2.96018936 14.77626068 -6.05859375 14.3828125 C-8.76275176 12.18568411 -9.0035212 10.82339289 -9.43359375 7.3828125 C-8.65986906 1.19301496 -6.313202 -0.34879569 0 0 Z " fill="#262F56" transform="translate(482.05859375,164.6171875)"/>
<path d="M0 0 C-3.45308311 2.09651475 -3.45308311 2.09651475 -6.125 1.625 C-6.74375 1.41875 -7.3625 1.2125 -8 1 C-8.66 1 -9.32 1 -10 1 C-10 0.34 -10 -0.32 -10 -1 C-10.66 -1 -11.32 -1 -12 -1 C-12 -0.01 -12 0.98 -12 2 C-14.97 1.505 -14.97 1.505 -18 1 C-18.226875 1.721875 -18.45375 2.44375 -18.6875 3.1875 C-20.24471644 6.52439237 -22.38054709 8.44948006 -25 11 C-25 11.66 -25 12.32 -25 13 C-24.34 13.33 -23.68 13.66 -23 14 C-23.125 15.875 -23.125 15.875 -24 18 C-27.0625 19.25 -27.0625 19.25 -30 20 C-29.83699238 11.84961887 -26.56762607 4.62987516 -22 -2 C-14.68779237 -7.27817804 -6.67735461 -5.04873154 0 0 Z " fill="#2567A1" transform="translate(79,230)"/>
<path d="M0 0 C0.99 0.33 1.98 0.66 3 1 C3.57475923 6.28991362 3.8560943 10.70632114 0.5625 15.125 C-1.44779088 17.18349929 -2.55233368 17.92065751 -5.40234375 18.42578125 C-7.64752581 18.43642192 -9.77808978 18.31106743 -12 18 C-12 14.15276398 -10.70167183 11.40334366 -9 8 C-8.67 7.01 -8.34 6.02 -8 5 C-6.35 5 -4.7 5 -3 5 C-2.690625 4.360625 -2.38125 3.72125 -2.0625 3.0625 C-1 1 -1 1 0 0 Z " fill="#293155" transform="translate(341,205)"/>
<path d="M0 0 C5.32324557 4.55342236 9.06350163 13.07772446 10.6640625 19.78125 C10.8125 22.125 10.8125 22.125 10 26 C5.49650537 29.88751513 2.17507965 30.50333508 -3.6875 30.375 C-4.99074219 30.36210937 -6.29398438 30.34921875 -7.63671875 30.3359375 C-11 30 -11 30 -14 28 C-8.72 27.67 -3.44 27.34 2 27 C3.85119 21.84326223 3.85119 21.84326223 3.0625 16.75 C2.5365625 15.88375 2.5365625 15.88375 2 15 C2.185625 14.38125 2.37125 13.7625 2.5625 13.125 C3.23136779 9.87621361 1.47271492 7.88652123 0 5 C-0.1875 2.125 -0.1875 2.125 0 0 Z " fill="#64D9E5" transform="translate(190,239)"/>
<path d="M0 0 C2.5625 1 2.5625 1 5 3 C6.75539202 8.70502406 5.58840457 11.92672705 3 17 C0.69 17 -1.62 17 -4 17 C-4 17.66 -4 18.32 -4 19 C-5.32 18.34 -6.64 17.68 -8 17 C-7.814375 16.21625 -7.62875 15.4325 -7.4375 14.625 C-6.74037734 12.02910225 -6.74037734 12.02910225 -8 10 C-7.01 10 -6.02 10 -5 10 C-4.80664062 9.36191406 -4.61328125 8.72382813 -4.4140625 8.06640625 C-4.15367187 7.24011719 -3.89328125 6.41382813 -3.625 5.5625 C-3.36976563 4.73878906 -3.11453125 3.91507813 -2.8515625 3.06640625 C-2 1 -2 1 0 0 Z " fill="#272D53" transform="translate(299,203)"/>
<path d="M0 0 C0.495 0.99 0.495 0.99 1 2 C0.34 2 -0.32 2 -1 2 C-1 2.66 -1 3.32 -1 4 C-2.32 4 -3.64 4 -5 4 C-5 4.66 -5 5.32 -5 6 C-6.65 6.66 -8.3 7.32 -10 8 C-9.505 9.485 -9.505 9.485 -9 11 C-9.4375 13.1875 -9.4375 13.1875 -10 15 C-10.515625 14.814375 -11.03125 14.62875 -11.5625 14.4375 C-16.26217624 13.59396837 -19.88457972 14.23159936 -23.8125 16.9375 C-25.22749175 18.27163508 -26.62484218 19.62484218 -28 21 C-31.62644968 22.3699921 -35.19413062 23.2989188 -39 24 C-40.33542939 24.32483418 -41.66961551 24.6550855 -43 25 C-40.33493058 21.92565206 -37.00920985 20.1359618 -33.5 18.1875 C-32.56015259 17.65866211 -32.56015259 17.65866211 -31.60131836 17.11914062 C-29.73757001 16.07325868 -27.8697514 15.03510504 -26 14 C-24.59427734 13.22076172 -24.59427734 13.22076172 -23.16015625 12.42578125 C-15.48005211 8.21038575 -7.7352946 4.11296366 0 0 Z " fill="#65CDE3" transform="translate(137,201)"/>
<path d="M0 0 C0.7425 0.2475 1.485 0.495 2.25 0.75 C2.25 3.75 2.25 3.75 0.90820312 5.09692383 C0.28880859 5.54575928 -0.33058594 5.99459473 -0.96875 6.45703125 C-1.65453125 6.96169922 -2.3403125 7.46636719 -3.046875 7.98632812 C-3.77390625 8.50646484 -4.5009375 9.02660156 -5.25 9.5625 C-5.94609375 10.07103516 -6.6421875 10.57957031 -7.359375 11.10351562 C-8.76871477 12.13311662 -10.18150575 13.15800965 -11.59765625 14.17822266 C-14.47663143 16.28063217 -17.29228436 18.46307252 -20.10351562 20.6550293 C-21.75 21.75 -21.75 21.75 -23.75 21.75 C-23.75 20.1 -23.75 18.45 -23.75 16.75 C-23.09 16.75 -22.43 16.75 -21.75 16.75 C-21.54375 16.193125 -21.3375 15.63625 -21.125 15.0625 C-19.17923508 11.79007718 -16.84592257 9.93535711 -13.75 7.75 C-10.875 7.4375 -10.875 7.4375 -8.75 7.75 C-8.5025 7.1725 -8.255 6.595 -8 6 C-4.44230769 -0.40384615 -4.44230769 -0.40384615 0 0 Z " fill="#2CA3CE" transform="translate(114.75,232.25)"/>
<path d="M0 0 C-1.09824321 3.02016884 -2.39283625 5.70532295 -4.0625 8.4375 C-5.55639126 10.94549262 -6.02607701 12.18998968 -6.4375 15.1875 C-7.19320455 18.96602276 -8.9953366 19.72818133 -12 22 C-13.2485886 24.4971772 -14 26.21316512 -14 29 C-14.99 29 -15.98 29 -17 29 C-17 29.66 -17 30.32 -17 31 C-18.5 32.625 -18.5 32.625 -20 34 C-20.66 33.67 -21.32 33.34 -22 33 C-19.05528752 27.06274908 -16.02470664 21.17680407 -12.9375 15.3125 C-12.50373047 14.48427734 -12.06996094 13.65605469 -11.62304688 12.80273438 C-10.42689045 10.52876272 -9.21737098 8.26266971 -8 6 C-7.46503906 5.00355469 -6.93007812 4.00710937 -6.37890625 2.98046875 C-4.60119145 0.42720698 -3.07707299 0 0 0 Z " fill="#30509F" transform="translate(110,133)"/>
<path d="M0 0 C1.65 0.33 3.3 0.66 5 1 C5.33 2.32 5.66 3.64 6 5 C6.66 5 7.32 5 8 5 C8 5.99 8 6.98 8 8 C5.36 8.66 2.72 9.32 0 10 C0 10.99 0 11.98 0 13 C-2.70879335 14.35439668 -5.00933268 14.06501451 -8 14 C-8 10.89448334 -7.4606285 9.64738916 -6 7 C-6.99 7.66 -7.98 8.32 -9 9 C-9.99 8.67 -10.98 8.34 -12 8 C-8.55930376 5.70620251 -7.27709699 5 -3 5 C-2.67 4.01 -2.34 3.02 -2 2 C-1.34 2 -0.68 2 0 2 C0 1.34 0 0.68 0 0 Z M3 1 C4 3 4 3 4 3 Z " fill="#5DDDEF" transform="translate(155,193)"/>
<path d="M0 0 C0.33 1.32 0.66 2.64 1 4 C-0.98 4.66 -2.96 5.32 -5 6 C-5.0825 7.0725 -5.165 8.145 -5.25 9.25 C-6.05476902 13.2738451 -6.87729874 14.48169253 -10 17 C-10.66 16.67 -11.32 16.34 -12 16 C-12.5625 13.6875 -12.5625 13.6875 -13 11 C-13.20625 10.29875 -13.4125 9.5975 -13.625 8.875 C-14 7 -14 7 -13 4 C-8.68496502 0.03483272 -5.71867461 -1.83814541 0 0 Z " fill="#3E8EC6" transform="translate(158,211)"/>
<path d="M0 0 C3.30266863 3.06213487 5.00512601 6.67920424 6.9375 10.6875 C7.43926758 11.71133789 7.43926758 11.71133789 7.95117188 12.75585938 C8.62732112 14.1355165 9.30001035 15.51687467 9.96923828 16.89990234 C10.67615387 18.34018844 11.39940023 19.77253993 12.13623047 21.19775391 C12.49990723 21.90206543 12.86358398 22.60637695 13.23828125 23.33203125 C13.56997314 23.96471924 13.90166504 24.59740723 14.2434082 25.24926758 C15.24244953 27.56102148 15.31018108 29.51855134 15 32 C12.525 32.495 12.525 32.495 10 33 C9.814375 31.2984375 9.814375 31.2984375 9.625 29.5625 C9.41875 28.386875 9.2125 27.21125 9 26 C8.34 25.67 7.68 25.34 7 25 C7.66 23.02 8.32 21.04 9 19 C8.01 18.67 7.02 18.34 6 18 C6 17.01 6 16.02 6 15 C5.34 15 4.68 15 4 15 C3.32532438 13.25307205 2.66055844 11.50231475 2 9.75 C1.62875 8.77546875 1.2575 7.8009375 0.875 6.796875 C0 4 0 4 0 0 Z " fill="#508DBB" transform="translate(138,137)"/>
<path d="M0 0 C2.4375 1 2.4375 1 5 3 C5.4140625 4.91015625 5.4140625 4.91015625 5.5625 7.0625 C5.706875 8.361875 5.85125 9.66125 6 11 C7.83572704 12.54400659 7.83572704 12.54400659 10 13 C10.66 13.33 11.32 13.66 12 14 C12 14.99 12 15.98 12 17 C12.66 17 13.32 17 14 17 C14 17.99 14 18.98 14 20 C14.66 20.33 15.32 20.66 16 21 C16.625 23.5625 16.625 23.5625 17 26 C17.99 26.33 18.98 26.66 20 27 C20.6875 29.0625 20.6875 29.0625 21 31 C13.58470156 27.97895249 9.36410183 21.01089594 6 14.125 C5.505 13.11695313 5.01 12.10890625 4.5 11.0703125 C4.005 10.05710938 3.51 9.04390625 3 8 C2.443125 6.92492187 1.88625 5.84984375 1.3125 4.7421875 C0 2 0 2 0 0 Z " fill="#4EB2D3" transform="translate(151,235)"/>
<path d="M0 0 C1.69141656 0.08963062 3.37959602 0.24577676 5.0625 0.4375 C6.44115234 0.59025391 6.44115234 0.59025391 7.84765625 0.74609375 C8.55792969 0.82988281 9.26820313 0.91367188 10 1 C8.68 2.32 7.36 3.64 6 5 C11.94 5 17.88 5 24 5 C24.33 5.99 24.66 6.98 25 8 C21.43798805 8.19766544 17.87538633 8.38133629 14.3125 8.5625 C13.30509766 8.61857422 12.29769531 8.67464844 11.25976562 8.73242188 C9.79506836 8.80493164 9.79506836 8.80493164 8.30078125 8.87890625 C7.40528564 8.9260376 6.50979004 8.97316895 5.5871582 9.02172852 C2.93176823 8.99942695 0.58041401 8.60392668 -2 8 C-1.125 1.125 -1.125 1.125 0 0 Z " fill="#1C2344" transform="translate(362,199)"/>
<path d="M0 0 C0 4.95 0 9.9 0 15 C-5 16 -5 16 -6.875 15.0625 C-8.72338403 11.67379594 -7.67245855 8.72908833 -7 5 C-6.01 4.67 -5.02 4.34 -4 4 C-3.67 3.01 -3.34 2.02 -3 1 C-1 0 -1 0 0 0 Z " fill="#1F77B7" transform="translate(58,207)"/>
<path d="M0 0 C0.61746094 0.20496094 1.23492187 0.40992188 1.87109375 0.62109375 C7.62710276 2.45215293 12.97978316 3.51449864 19 4 C19 4.33 19 4.66 19 5 C14.05 5 9.1 5 4 5 C3.34 6.32 2.68 7.64 2 9 C2.66 9 3.32 9 4 9 C4 8.01 4 7.02 4 6 C4.99 6.33 5.98 6.66 7 7 C6.01 7.495 6.01 7.495 5 8 C4.67 8.99 4.34 9.98 4 11 C5.32 11 6.64 11 8 11 C8.33 11.99 8.66 12.98 9 14 C4.22423661 13.5317879 0.95523655 12.75668002 -3 10 C-2.39009109 6.44219804 -1.4216319 3.3171411 0 0 Z " fill="#323958" transform="translate(310,210)"/>
<path d="M0 0 C2.63247289 0.35573958 4.53051446 0.65223294 6.6875 2.25 C8.2788316 4.37177547 9.12402603 6.50684332 10 9 C8.8125 10.5625 8.8125 10.5625 7 12 C4.3125 11.6875 4.3125 11.6875 2 11 C2 10.34 2 9.68 2 9 C0.68 8.67 -0.64 8.34 -2 8 C-1.47731534 5.23723823 -0.89130413 2.6739124 0 0 Z " fill="#1E2751" transform="translate(270,210)"/>
<path d="M0 0 C0.66 2.64 1.32 5.28 2 8 C-1.28675658 10.19117105 -2.23549534 10.09652576 -6 10 C-6.99 10.495 -6.99 10.495 -8 11 C-8.66 10.34 -9.32 9.68 -10 9 C-8.02 8.67 -6.04 8.34 -4 8 C-4 6.68 -4 5.36 -4 4 C-4.99 3.34 -5.98 2.68 -7 2 C-7.99 2.33 -8.98 2.66 -10 3 C-11.89470816 3.0685495 -13.7916834 3.08480372 -15.6875 3.0625 C-16.68136719 3.05347656 -17.67523438 3.04445312 -18.69921875 3.03515625 C-19.83810547 3.01775391 -19.83810547 3.01775391 -21 3 C-21.33 2.01 -21.66 1.02 -22 0 C-21.484375 0.165 -20.96875 0.33 -20.4375 0.5 C-16.00894297 1.40842196 -12.16615738 1.39649351 -7.875 -0.0625 C-4.7325249 -1.08722014 -3.12600449 -0.91941309 0 0 Z " fill="#474E6D" transform="translate(385,212)"/>
<path d="M0 0 C-0.47308594 0.35191406 -0.94617188 0.70382813 -1.43359375 1.06640625 C-2.83422114 2.11209882 -4.22965651 3.16476568 -5.62109375 4.22265625 C-7.2357724 5.42902536 -8.87521464 6.60280577 -10.53515625 7.74609375 C-15.50709103 11.04603733 -15.50709103 11.04603733 -17.6875 16.3125 C-17.21009434 19.12977392 -17.21009434 19.12977392 -15 21 C-15.66 21.99 -16.32 22.98 -17 24 C-17.70180531 22.5903653 -18.38593958 21.17192359 -19.0625 19.75 C-19.44535156 18.96109375 -19.82820312 18.1721875 -20.22265625 17.359375 C-21.10718824 14.67466483 -21.02507443 13.59757082 -20 11 C-19.34 10.01 -18.68 9.02 -18 8 C-16.68 8.33 -15.36 8.66 -14 9 C-13.67 7.68 -13.34 6.36 -13 5 C-11.02 4.67 -9.04 4.34 -7 4 C-7.33 2.68 -7.66 1.36 -8 0 C-4.71303767 -0.79953138 -3.28976808 -1.09658936 0 0 Z " fill="#81CFE1" transform="translate(162,202)"/>
<path d="M0 0 C2.31 0 4.62 0 7 0 C7 1.32 7 2.64 7 4 C5.68 4 4.36 4 3 4 C3 4.99 3 5.98 3 7 C2.01 7 1.02 7 0 7 C-0.33 8.32 -0.66 9.64 -1 11 C-2.65 11.33 -4.3 11.66 -6 12 C-6.66 10.35 -7.32 8.7 -8 7 C-6.02 7.66 -4.04 8.32 -2 9 C-2.33 7.35 -2.66 5.7 -3 4 C-2.01 3.34 -1.02 2.68 0 2 C0 1.34 0 0.68 0 0 Z " fill="#1F7CBF" transform="translate(137,184)"/>
<path d="M0 0 C0 1.32 0 2.64 0 4 C-3.3289253 7.13310616 -7.20391949 9.46927966 -11 12 C-11.66 12.66 -12.32 13.32 -13 14 C-13 12.35 -13 10.7 -13 9 C-12.01 9 -11.02 9 -10 9 C-10 8.34 -10 7.68 -10 7 C-9.01 7 -8.02 7 -7 7 C-6.67 6.01 -6.34 5.02 -6 4 C-4.68 4 -3.36 4 -2 4 C-2 3.01 -2 2.02 -2 1 C-3.19625 1.309375 -4.3925 1.61875 -5.625 1.9375 C-9.06402439 2.80031573 -12.49136573 3.47370486 -16 4 C-11.55085105 -0.07838654 -5.7906467 -1.80957709 0 0 Z " fill="#A8E9EA" transform="translate(182,184)"/>
<path d="M0 0 C3.35261564 2.80438918 5.12273868 6.57583749 7.125 10.375 C7.48464844 11.035 7.84429687 11.695 8.21484375 12.375 C10.08989385 15.9003751 11.48819438 18.98310134 12 23 C8.125 21.125 8.125 21.125 7 20 C6.95936168 18.33382885 6.957279 16.66611905 7 15 C6.34 15 5.68 15 5 15 C4.67 14.34 4.34 13.68 4 13 C3.01 13.495 3.01 13.495 2 14 C2 11.03 2 8.06 2 5 C1.34 5 0.68 5 0 5 C0 3.35 0 1.7 0 0 Z " fill="#65CCDD" transform="translate(178,216)"/>
<path d="M0 0 C3.3 0.99 6.6 1.98 10 3 C6.71299843 4.64350079 4.52069985 5.41321669 1 6 C1 6.66 1 7.32 1 8 C1.99 8.33 2.98 8.66 4 9 C4 10.32 4 11.64 4 13 C-0.75 11.125 -0.75 11.125 -3 10 C-2.25 3.375 -2.25 3.375 0 0 Z " fill="#4A4F6E" transform="translate(395,210)"/>
<path d="M0 0 C3.63 0 7.26 0 11 0 C12 4 12 4 11.0625 6.25 C10.711875 6.8275 10.36125 7.405 10 8 C9.01 8 8.02 8 7 8 C6.67 8.66 6.34 9.32 6 10 C5.34 9.67 4.68 9.34 4 9 C4.33 7.35 4.66 5.7 5 4 C2.03 3.505 2.03 3.505 -1 3 C-0.67 2.01 -0.34 1.02 0 0 Z " fill="#252B4A" transform="translate(555,182)"/>
<path d="M0 0 C0.99 0 1.98 0 3 0 C3 0.66 3 1.32 3 2 C5.64 2 8.28 2 11 2 C11.33 2.99 11.66 3.98 12 5 C11.34 5 10.68 5 10 5 C10 5.66 10 6.32 10 7 C8.37536158 7.05395478 6.75021459 7.09277195 5.125 7.125 C4.22007812 7.14820313 3.31515625 7.17140625 2.3828125 7.1953125 C0 7 0 7 -2 5 C-1.46428571 1.46428571 -1.46428571 1.46428571 0 0 Z " fill="#1F264D" transform="translate(500,175)"/>
<path d="M0 0 C1.32 0 2.64 0 4 0 C4 0.66 4 1.32 4 2 C4.66 2.33 5.32 2.66 6 3 C5.8125 5.3125 5.8125 5.3125 5 8 C2.10451959 10.20970874 0.66842255 11 -3 11 C-3.37113402 5.43298969 -3.37113402 5.43298969 -1.5 3.25 C-1.005 2.8375 -0.51 2.425 0 2 C0 1.34 0 0.68 0 0 Z " fill="#202951" transform="translate(211,211)"/>
<path d="M0 0 C2 2 2 2 3 5 C2.071875 5.8353125 2.071875 5.8353125 1.125 6.6875 C-1.13465756 8.82479879 -1.13465756 8.82479879 -1.8125 11.5 C-3.60787953 15.27974637 -6.30647802 16.15323901 -10 18 C-10 16.68 -10 15.36 -10 14 C-8.68 13.34 -7.36 12.68 -6 12 C-6.33 11.01 -6.66 10.02 -7 9 C-5.8203125 7.24609375 -5.8203125 7.24609375 -4.125 5.4375 C-1.77689547 2.91862639 -1.77689547 2.91862639 0 0 Z " fill="#52D6ED" transform="translate(143,205)"/>
<path d="M0 0 C0.66 0.33 1.32 0.66 2 1 C2 2.98 2 4.96 2 7 C1.34 7 0.68 7 0 7 C1.32 8.32 2.64 9.64 4 11 C4.66 10.67 5.32 10.34 6 10 C6 10.99 6 11.98 6 13 C2.625 13.125 2.625 13.125 -1 13 C-3 11 -3 11 -3.1953125 8.6171875 C-3.17210937 7.71226562 -3.14890625 6.80734375 -3.125 5.875 C-3.10695312 4.96492188 -3.08890625 4.05484375 -3.0703125 3.1171875 C-3.04710937 2.41851562 -3.02390625 1.71984375 -3 1 C-2.01 0.67 -1.02 0.34 0 0 Z " fill="#4870A4" transform="translate(46,254)"/>
<path d="M0 0 C0.66 0 1.32 0 2 0 C0.59794063 4.461098 -1.68824198 6.77539351 -5 10 C-5 10.66 -5 11.32 -5 12 C-4.34 12.33 -3.68 12.66 -3 13 C-3.125 14.875 -3.125 14.875 -4 17 C-7.0625 18.25 -7.0625 18.25 -10 19 C-9.38210766 11.46171342 -9.38210766 11.46171342 -7.5 9.1875 C-7.005 8.795625 -6.51 8.40375 -6 8 C-5.67 7.01 -5.34 6.02 -5 5 C-4.01 4.67 -3.02 4.34 -2 4 C-0.79117904 1.99983534 -0.79117904 1.99983534 0 0 Z " fill="#1D5AA2" transform="translate(59,231)"/>
<path d="M0 0 C2.05078125 0.03255208 4.1015625 0.06510417 6.15234375 0.09765625 C4.90234375 2.09765625 4.90234375 2.09765625 3.15234375 4.09765625 C1.83234375 4.09765625 0.51234375 4.09765625 -0.84765625 4.09765625 C-1.50765625 5.74765625 -2.16765625 7.39765625 -2.84765625 9.09765625 C-3.83765625 9.09765625 -4.82765625 9.09765625 -5.84765625 9.09765625 C-6.17765625 10.41765625 -6.50765625 11.73765625 -6.84765625 13.09765625 C-7.50765625 12.76765625 -8.16765625 12.43765625 -8.84765625 12.09765625 C-7.87061704 10.28400855 -6.8909652 8.47176808 -5.91015625 6.66015625 C-5.36488281 5.65082031 -4.81960937 4.64148438 -4.2578125 3.6015625 C-2.29787517 0.12145218 -2.29787517 0.12145218 0 0 Z " fill="#4E79AD" transform="translate(59.84765625,226.90234375)"/>
<path d="M0 0 C1.65 0.33 3.3 0.66 5 1 C5.33 2.32 5.66 3.64 6 5 C6.66 5 7.32 5 8 5 C8 5.99 8 6.98 8 8 C4.7 8.33 1.4 8.66 -2 9 C-1.34 8.67 -0.68 8.34 0 8 C-0.33 7.01 -0.66 6.02 -1 5 C-0.67 4.34 -0.34 3.68 0 3 C-0.66 2.67 -1.32 2.34 -2 2 C-1.34 2 -0.68 2 0 2 C0 1.34 0 0.68 0 0 Z M3 1 C4 3 4 3 4 3 Z " fill="#69E4F1" transform="translate(155,193)"/>
<path d="M0 0 C2.89050687 0.30426388 4.51309583 0.49361967 6.5625 2.625 C7.28142238 6.52772148 5.12009246 8.75750566 3 12 C2.29488281 11.68289062 1.58976562 11.36578125 0.86328125 11.0390625 C-2.12505879 9.95461714 -4.65069658 9.6035641 -7.8125 9.375 C-8.78832031 9.30023438 -9.76414062 9.22546875 -10.76953125 9.1484375 C-11.50558594 9.09945312 -12.24164063 9.05046875 -13 9 C-13 8.67 -13 8.34 -13 8 C-11.06257659 7.97296619 -9.12504521 7.95358875 -7.1875 7.9375 C-6.10855469 7.92589844 -5.02960938 7.91429687 -3.91796875 7.90234375 C-1 8 -1 8 2 9 C1.51515724 4.35413108 1.51515724 4.35413108 0 0 Z " fill="#606480" transform="translate(460,184)"/>
<path d="M0 0 C-6.52714652 2.88700712 -11.24121706 4.15177764 -18.5 4.1875 C-19.8096875 4.20167969 -21.119375 4.21585937 -22.46875 4.23046875 C-25.78480327 4.01404492 -27.19617785 3.5531051 -30 2 C-28.081875 1.92652344 -28.081875 1.92652344 -26.125 1.8515625 C-24.41664778 1.77647009 -22.70831541 1.70092513 -21 1.625 C-20.16082031 1.5940625 -19.32164063 1.563125 -18.45703125 1.53125 C-14.34045095 1.33978115 -10.54680177 0.98390433 -6.5625 -0.1015625 C-3 -1 -3 -1 0 0 Z " fill="#658FB5" transform="translate(77,265)"/>
<path d="M0 0 C-3.58688472 4.99989992 -5.75537242 6.77337673 -12 8 C-13.3303125 8.2784375 -13.3303125 8.2784375 -14.6875 8.5625 C-15.8321875 8.7790625 -15.8321875 8.7790625 -17 9 C-18.33542939 9.32483418 -19.66961551 9.6550855 -21 10 C-18.3390086 6.93325459 -15.16443047 5.2442029 -11.625 3.3125 C-10.50351563 2.68988281 -9.38203125 2.06726563 -8.2265625 1.42578125 C-5.11535591 0.05097446 -3.33660279 -0.33116095 0 0 Z " fill="#4DB8DB" transform="translate(115,216)"/>
<path d="M0 0 C2.89050687 0.30426388 4.51309583 0.49361967 6.5625 2.625 C7.28142238 6.52772148 5.12009246 8.75750566 3 12 C2.21625 11.690625 1.4325 11.38125 0.625 11.0625 C-3.89851578 9.73664193 -8.31431814 9.35188915 -13 9 C-13 8.67 -13 8.34 -13 8 C-8.38 8 -3.76 8 1 8 C1.33 7.34 1.66 6.68 2 6 C2.66 6.33 3.32 6.66 4 7 C4 5.35 4 3.7 4 2 C2.68 1.67 1.36 1.34 0 1 C0 0.67 0 0.34 0 0 Z " fill="#4D5274" transform="translate(336,184)"/>
<path d="M0 0 C2.42857143 7.42857143 2.42857143 7.42857143 1 11 C0.34 10.34 -0.32 9.68 -1 9 C-1 7.68 -1 6.36 -1 5 C-3.97 4.505 -3.97 4.505 -7 4 C-6.625 2.0625 -6.625 2.0625 -6 0 C-3.50907189 -1.24546405 -2.58919267 -0.7767578 0 0 Z M-10 4 C-9.01 4.33 -8.02 4.66 -7 5 C-8.98 5.99 -8.98 5.99 -11 7 C-10.67 6.01 -10.34 5.02 -10 4 Z " fill="#249ED0" transform="translate(171,202)"/>
<path d="M0 0 C0.66 0 1.32 0 2 0 C2.33 2.97 2.66 5.94 3 9 C2.2575 9.28875 1.515 9.5775 0.75 9.875 C-1.56739797 10.82302644 -3.77917115 11.84845911 -6 13 C-5.75 10.125 -5.75 10.125 -5 7 C-3.68352881 6.30062468 -2.34977849 5.63270867 -1 5 C-0.18828772 2.44480079 -0.18828772 2.44480079 0 0 Z " fill="#223B92" transform="translate(85,174)"/>
<path d="M0 0 C8.59141782 -0.43995881 15.46853452 -0.46309065 23 4 C23 4.66 23 5.32 23 6 C22.38125 5.79375 21.7625 5.5875 21.125 5.375 C20.42375 5.25125 19.7225 5.1275 19 5 C18.34 5.66 17.68 6.32 17 7 C17 6.34 17 5.68 17 5 C16.34 4.67 15.68 4.34 15 4 C15.33 3.34 15.66 2.68 16 2 C10.39 2 4.78 2 -1 2 C-0.67 1.34 -0.34 0.68 0 0 Z " fill="#61627C" transform="translate(404,182)"/>
<path d="M0 0 C2.34601486 2.13274079 3.86264449 4.02537789 5 7 C5.125 9.75 5.125 9.75 5 12 C3.35 12.33 1.7 12.66 0 13 C-0.12375 11.865625 -0.2475 10.73125 -0.375 9.5625 C-0.58125 8.386875 -0.7875 7.21125 -1 6 C-1.66 5.67 -2.32 5.34 -3 5 C-1.125 1.125 -1.125 1.125 0 0 Z " fill="#4C98C4" transform="translate(148,157)"/>
<path d="M0 0 C2.00720923 0.28674418 4.0085944 0.61866701 6 1 C6.75 3.75 6.75 3.75 7 7 C5.0625 9.375 5.0625 9.375 3 11 C2.34 10.67 1.68 10.34 1 10 C0.4375 7.6875 0.4375 7.6875 0 5 C-0.20625 4.2575 -0.4125 3.515 -0.625 2.75 C-0.74875 2.1725 -0.8725 1.595 -1 1 C-0.67 0.67 -0.34 0.34 0 0 Z " fill="#1C77B7" transform="translate(145,217)"/>
<path d="M0 0 C0.928125 0.20625 1.85625 0.4125 2.8125 0.625 C-1.06776891 4.86904412 -5.23004346 7.73417547 -10.1875 10.625 C-10.1875 9.305 -10.1875 7.985 -10.1875 6.625 C-9.1975 6.625 -8.2075 6.625 -7.1875 6.625 C-7.084375 5.84125 -6.98125 5.0575 -6.875 4.25 C-5.79554967 0.12846237 -4.09660421 -0.48195344 0 0 Z " fill="#82D4E4" transform="translate(127.1875,224.375)"/>
<path d="M0 0 C0.7425 0.2475 1.485 0.495 2.25 0.75 C2.25 1.74 2.25 2.73 2.25 3.75 C0.28125 5.57421875 0.28125 5.57421875 -2.25 7.4375 C-3.50296875 8.37142578 -3.50296875 8.37142578 -4.78125 9.32421875 C-5.4309375 9.79472656 -6.080625 10.26523438 -6.75 10.75 C-7.41 9.76 -8.07 8.77 -8.75 7.75 C-6.95252408 3.55588951 -4.99386899 -0.45398809 0 0 Z " fill="#3DB9DD" transform="translate(114.75,232.25)"/>
<path d="M0 0 C1.9375 1.5 1.9375 1.5 3 3 C0.44787237 3.85070921 -0.80107862 4.05610603 -3.4375 3.3125 C-6.15140516 2.71401805 -6.15140516 2.71401805 -8.6875 4.625 C-11.03922459 7.04028471 -12.02435627 8.80698415 -13 12 C-14.28610235 8.14169295 -13.67580926 6.65631112 -12 3 C-8.1974893 -0.25929488 -4.90471722 -0.54496858 0 0 Z " fill="#5AABD4" transform="translate(63,205)"/>
<path d="M0 0 C2.13209391 2.75290949 4.01356503 5.54416744 5.75 8.5625 C6.19859375 9.32691406 6.6471875 10.09132812 7.109375 10.87890625 C8 13 8 13 7 16 C4 18 4 18 1 18 C1 17.01 1 16.02 1 15 C2.65 15 4.3 15 6 15 C6 14.01 6 13.02 6 12 C5.38125 11.938125 4.7625 11.87625 4.125 11.8125 C2 11 2 11 0.75 8.8125 C-0.06408712 5.75967331 -0.14631766 3.14582965 0 0 Z " fill="#4CA2CC" transform="translate(153,166)"/>
<path d="M0 0 C2.4375 1 2.4375 1 5 3 C5.4140625 4.91015625 5.4140625 4.91015625 5.5625 7.0625 C5.706875 8.361875 5.85125 9.66125 6 11 C7.95021083 12.22527948 7.95021083 12.22527948 10 13 C10.875 15.5 10.875 15.5 11 18 C10.34 18.66 9.68 19.32 9 20 C7 16 5 12 3 8 C2.43925781 6.91976562 1.87851563 5.83953125 1.30078125 4.7265625 C0 2 0 2 0 0 Z " fill="#5EB3D5" transform="translate(151,235)"/>
<path d="M0 0 C0.53625 0.226875 1.0725 0.45375 1.625 0.6875 C1.295 1.6775 0.965 2.6675 0.625 3.6875 C-0.035 3.6875 -0.695 3.6875 -1.375 3.6875 C-1.375 4.3475 -1.375 5.0075 -1.375 5.6875 C-1.99375 5.97625 -2.6125 6.265 -3.25 6.5625 C-5.50825765 7.62470042 -5.50825765 7.62470042 -7.375 9.6875 C-7.705 7.3775 -8.035 5.0675 -8.375 2.6875 C-2.95961538 -0.38942308 -2.95961538 -0.38942308 0 0 Z " fill="#2BA2CF" transform="translate(102.375,223.3125)"/>
<path d="M0 0 C3.3 0.99 6.6 1.98 10 3 C8.68 3.33 7.36 3.66 6 4 C2.60085025 5.13304992 1.94745549 6.12518475 0 9 C0.33 9.66 0.66 10.32 1 11 C-0.32 10.34 -1.64 9.68 -3 9 C-2.01 6.03 -1.02 3.06 0 0 Z " fill="#454D67" transform="translate(434,210)"/>
<path d="M0 0 C0.33 0 0.66 0 1 0 C1.20625 0.9075 1.4125 1.815 1.625 2.75 C3.3204079 6.75732776 5.27549784 7.89484661 9 10 C7.68 11.32 6.36 12.64 5 14 C5.99 14.33 6.98 14.66 8 15 C7.01 15.495 7.01 15.495 6 16 C2.9533855 14.98446183 0.68856164 13.79237442 -2 12 C-1 11 -1 11 2.0625 10.9375 C3.5165625 10.9684375 3.5165625 10.9684375 5 11 C5 10.34 5 9.68 5 9 C4.360625 8.87625 3.72125 8.7525 3.0625 8.625 C2.381875 8.41875 1.70125 8.2125 1 8 C-0.35439668 5.29120665 -0.06501451 2.99066732 0 0 Z " fill="#7FC5E3" transform="translate(69,212)"/>
<path d="M0 0 C2.125 0.9375 2.125 0.9375 4 2 C3.125 5.875 3.125 5.875 2 7 C-0.33297433 7.04092937 -2.66705225 7.04241723 -5 7 C-5 6.01 -5 5.02 -5 4 C-4.34 4 -3.68 4 -3 4 C-2.67 3.01 -2.34 2.02 -2 1 C-1.34 0.67 -0.68 0.34 0 0 Z " fill="#1F2954" transform="translate(439,213)"/>
<path d="M0 0 C2.49619254 1.87214441 2.96865123 2.7895154 3.4375 5.9375 C3 9 3 9 1.5 11.375 C-2.13251074 13.73613198 -4.71843297 13.2854378 -9 13 C-9 12.67 -9 12.34 -9 12 C-7.02 12 -5.04 12 -3 12 C-2.34 10.02 -1.68 8.04 -1 6 C-0.34 6 0.32 6 1 6 C0.67 4.02 0.34 2.04 0 0 Z " fill="#4D516F" transform="translate(485,166)"/>
<path d="M0 0 C3.26568788 2.72308128 4.86187313 6.31596302 6.6875 10.0625 C7.00783203 10.69994141 7.32816406 11.33738281 7.65820312 11.99414062 C10 16.73265925 10 16.73265925 10 19 C9.01 18.67 8.02 18.34 7 18 C5.8125 14.4375 5.8125 14.4375 5 11 C4.34 11 3.68 11 3 11 C0.84694043 7.14243493 -0.39253254 4.44870215 0 0 Z " fill="#7CD9E6" transform="translate(190,239)"/>
<path d="M0 0 C4.455 0.99 4.455 0.99 9 2 C8.01 4.97 7.02 7.94 6 11 C5.67 9.68 5.34 8.36 5 7 C4.34 7 3.68 7 3 7 C3 6.34 3 5.68 3 5 C2.34 5 1.68 5 1 5 C0.67 3.35 0.34 1.7 0 0 Z " fill="#2998C9" transform="translate(82,227)"/>
<path d="M0 0 C3.5786714 3.06954083 4.6972221 5.42068023 5.6875 10 C5.91824219 11.03125 6.14898437 12.0625 6.38671875 13.125 C6.69029297 14.548125 6.69029297 14.548125 7 16 C7.32713065 17.33486869 7.65764008 18.66895583 8 20 C7.34 20 6.68 20 6 20 C5.67 19.01 5.34 18.02 5 17 C4.34 16.67 3.68 16.34 3 16 C2.65625 13.92578125 2.65625 13.92578125 2.5 11.3125 C2.18030875 7.26114001 1.50306608 3.8077674 0 0 Z " fill="#3178B6" transform="translate(134,131)"/>
<path d="M0 0 C0.99 0.33 1.98 0.66 3 1 C3.33 3.31 3.66 5.62 4 8 C1.08517222 8.80967438 -0.46113217 9.21845993 -3.3125 8.0625 C-3.869375 7.711875 -4.42625 7.36125 -5 7 C-4.34 7 -3.68 7 -3 7 C-2.87625 6.401875 -2.7525 5.80375 -2.625 5.1875 C-2 3 -2 3 0 0 Z " fill="#20294F" transform="translate(403,196)"/>
<path d="M0 0 C0 0.33 0 0.66 0 1 C-0.99 1.185625 -1.98 1.37125 -3 1.5625 C-8.01976661 2.94832514 -11.34450454 6.44894727 -15 10 C-15.33 8.68 -15.66 7.36 -16 6 C-10.33860867 1.28217389 -7.4924415 -0.28817083 0 0 Z " fill="#4E5270" transform="translate(516,164)"/>
<path d="M0 0 C0.99 0.33 1.98 0.66 3 1 C3.16682272 5.92127034 3.24828052 9.50343896 1 14 C-0.32 14 -1.64 14 -3 14 C-3.33 13.01 -3.66 12.02 -4 11 C-3.360625 10.05125 -2.72125 9.1025 -2.0625 8.125 C0.05094591 4.92280922 0.43634984 3.70897364 0 0 Z " fill="#23509F" transform="translate(109,130)"/>
<path d="M0 0 C0 0.66 0 1.32 0 2 C0.66 2.33 1.32 2.66 2 3 C-0.31389861 5.14249871 -1.41588973 6 -4.625 6 C-7 5 -7 5 -8.3125 2.4375 C-8.539375 1.633125 -8.76625 0.82875 -9 0 C-5.62182575 -0.84454356 -3.32534757 -1.10844919 0 0 Z " fill="#318BC1" transform="translate(81,258)"/>
<path d="M0 0 C0.66 0 1.32 0 2 0 C2 0.66 2 1.32 2 2 C2.66 2 3.32 2 4 2 C4 1.34 4 0.68 4 0 C4.66 0 5.32 0 6 0 C6 0.66 6 1.32 6 2 C6.66 2 7.32 2 8 2 C8.33 1.34 8.66 0.68 9 0 C9 1.32 9 2.64 9 4 C7.68 4 6.36 4 5 4 C4.67 4.66 4.34 5.32 4 6 C4.99 6.33 5.98 6.66 7 7 C5 8 5 8 2.9375 7.4375 C1 6 1 6 0.25 2.875 C0.1675 1.92625 0.085 0.9775 0 0 Z " fill="#31458D" transform="translate(71,208)"/>
<path d="M0 0 C0.66 0.33 1.32 0.66 2 1 C1.67 1.99 1.34 2.98 1 4 C0.01 4.33 -0.98 4.66 -2 5 C-3.22520264 8.00847418 -3.22520264 8.00847418 -4 11 C-4.66 10.34 -5.32 9.68 -6 9 C-8.58354218 8.83312552 -8.58354218 8.83312552 -11 9 C-7.56638098 5.36440339 -4.2026393 2.63886654 0 0 Z " fill="#6DB3D1" transform="translate(163,202)"/>
<path d="M0 0 C0.33 0 0.66 0 1 0 C1 1.65 1 3.3 1 5 C1.66 5 2.32 5 3 5 C3.33 5.66 3.66 6.32 4 7 C4.99 7.33 5.98 7.66 7 8 C7 8.66 7 9.32 7 10 C5.68 10 4.36 10 3 10 C3 9.34 3 8.68 3 8 C0.03 7.505 0.03 7.505 -3 7 C-2.67 5.35 -2.34 3.7 -2 2 C-1.34 2 -0.68 2 0 2 C0 1.34 0 0.68 0 0 Z " fill="#1D9ECF" transform="translate(67,213)"/>
<path d="M0 0 C1.32 1.32 2.64 2.64 4 4 C3.67 4.66 3.34 5.32 3 6 C-1.95 6 -6.9 6 -12 6 C-11.67 5.34 -11.34 4.68 -11 4 C-8.03 4.33 -5.06 4.66 -2 5 C-1.34 3.35 -0.68 1.7 0 0 Z " fill="#70748A" transform="translate(263,218)"/>
<path d="M0 0 C1.32 0.66 2.64 1.32 4 2 C3.34 3.32 2.68 4.64 2 6 C1.21625 5.690625 0.4325 5.38125 -0.375 5.0625 C-4.89851578 3.73664193 -9.31431814 3.35188915 -14 3 C-14 2.67 -14 2.34 -14 2 C-9.71 2 -5.42 2 -1 2 C-0.67 1.34 -0.34 0.68 0 0 Z " fill="#7C7E94" transform="translate(297,190)"/>
<path d="M0 0 C1.22295649 3.66886948 0.41371057 4.55408047 -1 8 C-0.67 8.66 -0.34 9.32 0 10 C-0.66 10 -1.32 10 -2 10 C-1.34 12.31 -0.68 14.62 0 17 C-2.6262134 15.05888574 -3.02984859 13.87601356 -3.8125 10.625 C-3.99918125 7.01582915 -3.63159712 5.16721794 -2 2 C-1.34 2 -0.68 2 0 2 C0 1.34 0 0.68 0 0 Z " fill="#686C81" transform="translate(396,186)"/>
<path d="M0 0 C0.99 0.33 1.98 0.66 3 1 C1.63016497 4.16115776 1.0109362 4.9927092 -2 7 C-4.91796875 7.1953125 -4.91796875 7.1953125 -8.1875 7.125 C-9.27417969 7.10695312 -10.36085938 7.08890625 -11.48046875 7.0703125 C-12.72763672 7.03550781 -12.72763672 7.03550781 -14 7 C-14 6.67 -14 6.34 -14 6 C-13.40832031 5.95101562 -12.81664063 5.90203125 -12.20703125 5.8515625 C-7.80895528 5.43543133 -4.03071103 4.95034405 0 3 C0 2.01 0 1.02 0 0 Z " fill="#5976AC" transform="translate(95,213)"/>
<path d="M0 0 C0.99 0.33 1.98 0.66 3 1 C2.01 1.495 2.01 1.495 1 2 C0.67 2.99 0.34 3.98 0 5 C1.32 5 2.64 5 4 5 C4.33 5.99 4.66 6.98 5 8 C-0.28798182 7.58525633 -3.11690718 6.64775386 -7 3 C-3.86650268 1.95550089 -3.01031744 2.06576355 0 3 C0 2.01 0 1.02 0 0 Z " fill="#515673" transform="translate(314,216)"/>
<path d="M0 0 C0.99 0.33 1.98 0.66 3 1 C3.185625 2.2065625 3.185625 2.2065625 3.375 3.4375 C3.58125 4.283125 3.7875 5.12875 4 6 C4.66 6.33 5.32 6.66 6 7 C6.6328125 9.06640625 6.6328125 9.06640625 7.125 11.5625 C7.29257813 12.38878906 7.46015625 13.21507812 7.6328125 14.06640625 C7.75398437 14.70449219 7.87515625 15.34257812 8 16 C4.06764096 11.50587538 0 6.15240162 0 0 Z " fill="#70A1C8" transform="translate(121,174)"/>
<path d="M0 0 C0.33 0 0.66 0 1 0 C1.33 2.64 1.66 5.28 2 8 C1.01 8 0.02 8 -1 8 C-1 8.66 -1 9.32 -1 10 C-2.5 11.625 -2.5 11.625 -4 13 C-4.66 12.67 -5.32 12.34 -6 12 C-4 8 -2 4 0 0 Z " fill="#5468A5" transform="translate(94,154)"/>
<path d="M0 0 C0 3.63 0 7.26 0 11 C-0.66 11 -1.32 11 -2 11 C-3.20628008 8.66785852 -4.1654738 6.50357861 -5 4 C-1.125 0 -1.125 0 0 0 Z " fill="#1882C4" transform="translate(58,207)"/>
<path d="M0 0 C1.32 0.66 2.64 1.32 4 2 C3.06027344 2.61488281 3.06027344 2.61488281 2.1015625 3.2421875 C1.28429687 3.78101563 0.46703125 4.31984375 -0.375 4.875 C-1.59316406 5.67550781 -1.59316406 5.67550781 -2.8359375 6.4921875 C-5.07594096 7.95865055 -5.07594096 7.95865055 -7 10 C-7 8.35 -7 6.7 -7 5 C-6.01 5 -5.02 5 -4 5 C-4 4.34 -4 3.68 -4 3 C-3.01 3 -2.02 3 -1 3 C-0.67 2.01 -0.34 1.02 0 0 Z " fill="#A1ECF1" transform="translate(176,188)"/>
<path d="M0 0 C-0.185625 0.928125 -0.37125 1.85625 -0.5625 2.8125 C-1.24123881 6.01343771 -1.24123881 6.01343771 0 9 C-2.4375 8.375 -2.4375 8.375 -5 7 C-5.8125 3.875 -5.8125 3.875 -6 1 C-3 0 -3 0 0 0 Z " fill="#2075B6" transform="translate(134,184)"/>
<path d="M0 0 C1.32 0.66 2.64 1.32 4 2 C3.34 3.65 2.68 5.3 2 7 C0.35 7 -1.3 7 -3 7 C-3.33 6.01 -3.66 5.02 -4 4 C-2.68 3.34 -1.36 2.68 0 2 C0 1.34 0 0.68 0 0 Z " fill="#232C54" transform="translate(276,215)"/>
<path d="M0 0 C0.63929409 2.3745209 1.07497983 4.61233529 1.375 7.0625 C2.02579704 10.1212461 2.58845267 11.11270209 5 13 C4.67 13.99 4.34 14.98 4 16 C-0.91168831 11.24675325 -0.91168831 11.24675325 -1.1328125 8.125 C-1.13023437 7.42375 -1.12765625 6.7225 -1.125 6 C-1.12886719 4.948125 -1.12886719 4.948125 -1.1328125 3.875 C-1 2 -1 2 0 0 Z " fill="#4D5268" transform="translate(309,189)"/>
<path d="M0 0 C0.66 0.33 1.32 0.66 2 1 C0.24416626 4.09361183 -1.50018479 6.50018479 -4 9 C-5.17574711 11.09989652 -5.17574711 11.09989652 -6 13 C-7 10 -7 10 -5.8125 7.0625 C-4.11930369 4.2015821 -2.46123453 2.20662406 0 0 Z " fill="#646884" transform="translate(355,185)"/>
<path d="M0 0 C1.65 0 3.3 0 5 0 C5.33 1.32 5.66 2.64 6 4 C4.68 4 3.36 4 2 4 C2.33 5.32 2.66 6.64 3 8 C2.01 8.495 2.01 8.495 1 9 C-1.125 2.25 -1.125 2.25 0 0 Z " fill="#30365D" transform="translate(524,185)"/>
<path d="M0 0 C0.8971875 0.309375 0.8971875 0.309375 1.8125 0.625 C1.8125 1.285 1.8125 1.945 1.8125 2.625 C-3.48161765 6.625 -3.48161765 6.625 -7.1875 6.625 C-4.6484375 -0.796875 -4.6484375 -0.796875 0 0 Z " fill="#207EBA" transform="translate(156.1875,210.375)"/>
<path d="M0 0 C1.32 0 2.64 0 4 0 C2.90931332 3.77545388 2.0916909 6.47043472 -1 9 C-1.625 5.625 -1.625 5.625 -2 2 C-1.34 1.34 -0.68 0.68 0 0 Z " fill="#4166A4" transform="translate(99,205)"/>
<path d="M0 0 C3.33727786 1.17255709 5.77437487 2.18868404 8 5 C8 5.66 8 6.32 8 7 C6.35 7.33 4.7 7.66 3 8 C2.01 5.36 1.02 2.72 0 0 Z " fill="#5785B9" transform="translate(126,124)"/>
<path d="M0 0 C0.33 0.99 0.66 1.98 1 3 C-3.29 3.99 -7.58 4.98 -12 6 C-11 3 -11 3 -9.2578125 2.05078125 C-8.55398437 1.80714844 -7.85015625 1.56351562 -7.125 1.3125 C-6.42632812 1.06113281 -5.72765625 0.80976563 -5.0078125 0.55078125 C-3 0 -3 0 0 0 Z " fill="#1A73B3" transform="translate(76,261)"/>
<path d="M0 0 C0.99 0.33 1.98 0.66 3 1 C-0.11016455 4.28788824 -3.01618925 6.83735988 -7 9 C-6.67 7.35 -6.34 5.7 -6 4 C-5.01 3.67 -4.02 3.34 -3 3 C-1.33289654 1.50014391 -1.33289654 1.50014391 0 0 Z " fill="#5BB8D8" transform="translate(103,242)"/>
<path d="M0 0 C0.61746094 0.20496094 1.23492187 0.40992188 1.87109375 0.62109375 C7.62710276 2.45215293 12.97978316 3.51449864 19 4 C19 4.33 19 4.66 19 5 C5.18223235 5.55353075 5.18223235 5.55353075 0 2 C0 1.34 0 0.68 0 0 Z " fill="#61647E" transform="translate(310,210)"/>
<path d="M0 0 C0.103125 0.639375 0.20625 1.27875 0.3125 1.9375 C0.539375 2.618125 0.76625 3.29875 1 4 C1.99 4.33 2.98 4.66 4 5 C3.67 5.99 3.34 6.98 3 8 C1.68 7.67 0.36 7.34 -1 7 C-0.67 7.99 -0.34 8.98 0 10 C-1.98 10.99 -1.98 10.99 -4 12 C-2.66666667 8 -1.33333333 4 0 0 Z " fill="#505773" transform="translate(212,204)"/>
<path d="M0 0 C0.99 0.33 1.98 0.66 3 1 C3 2.32 3 3.64 3 5 C2.34 5 1.68 5 1 5 C1 5.66 1 6.32 1 7 C-0.65 7 -2.3 7 -4 7 C-2.92598892 4.08482708 -2.22189824 2.22189824 0 0 Z " fill="#232B50" transform="translate(285,201)"/>
<path d="M0 0 C0.66 0.33 1.32 0.66 2 1 C1.401875 1.4125 0.80375 1.825 0.1875 2.25 C-3.02410044 4.81928035 -4.69925489 7.09776468 -6 11 C-6.66 11 -7.32 11 -8 11 C-7.9375 7.75 -7.9375 7.75 -7 4 C-4.75836518 1.99491961 -2.83646314 1.19430027 0 0 Z " fill="#243887" transform="translate(78,196)"/>
<path d="M0 0 C4.75 0.75 4.75 0.75 7 3 C5.8125 4.5625 5.8125 4.5625 4 6 C1.3125 5.6875 1.3125 5.6875 -1 5 C-0.67 3.35 -0.34 1.7 0 0 Z " fill="#3C4164" transform="translate(270,210)"/>
<path d="M0 0 C0.99 0.66 1.98 1.32 3 2 C3 2.99 3 3.98 3 5 C4.32 5.33 5.64 5.66 7 6 C5.3125 7.1875 5.3125 7.1875 3 8 C0.25 6.625 0.25 6.625 -2 5 C-1.01 4.67 -0.02 4.34 1 4 C0.34 3.67 -0.32 3.34 -1 3 C-0.67 2.01 -0.34 1.02 0 0 Z " fill="#44599B" transform="translate(76,211)"/>
<path d="M0 0 C0.68707555 2.49064888 1 4.37886292 1 7 C0.34 7 -0.32 7 -1 7 C-1 7.66 -1 8.32 -1 9 C-0.34 9.33 0.32 9.66 1 10 C-0.32 10 -1.64 10 -3 10 C-3.36923077 3.47692308 -3.36923077 3.47692308 -1.5 1.0625 C-1.005 0.711875 -0.51 0.36125 0 0 Z " fill="#454A6C" transform="translate(435,189)"/>
<path d="M0 0 C3.08980073 1.54490037 3.68367403 3.88868408 5 7 C5.1875 9.875 5.1875 9.875 5 12 C4.01 11.67 3.02 11.34 2 11 C1.26953125 9.2578125 1.26953125 9.2578125 0.8125 7.125 C0.65394531 6.42632812 0.49539062 5.72765625 0.33203125 5.0078125 C0 3 0 3 0 0 Z " fill="#5FB7D3" transform="translate(171,202)"/>
<path d="M0 0 C2.31 0 4.62 0 7 0 C6.67 0.99 6.34 1.98 6 3 C6.99 3.66 7.98 4.32 9 5 C7.02 5.66 5.04 6.32 3 7 C1.79371992 4.66785852 0.8345262 2.50357861 0 0 Z " fill="#1F2850" transform="translate(362,201)"/>
<path d="M0 0 C0.66 0 1.32 0 2 0 C2 0.66 2 1.32 2 2 C5.63 2.66 9.26 3.32 13 4 C8.82091936 6.08954032 8.19589427 6.16552619 4 5 C4 4.34 4 3.68 4 3 C2.35 3.33 0.7 3.66 -1 4 C-0.67 2.68 -0.34 1.36 0 0 Z " fill="#737692" transform="translate(444,194)"/>
<path d="M0 0 C-0.66 0 -1.32 0 -2 0 C-2 0.66 -2 1.32 -2 2 C-5.82517513 4.39073445 -9.59665524 4.55966552 -14 5 C-12.37861617 1.75723234 -9.24889406 1.31095725 -6 0 C-3.50907189 -1.24546405 -2.58919267 -0.7767578 0 0 Z " fill="#9BE5EA" transform="translate(166,189)"/>
<path d="M0 0 C-8.75 7 -8.75 7 -13 7 C-13 6.34 -13 5.68 -13 5 C-12.01 5 -11.02 5 -10 5 C-10 4.01 -10 3.02 -10 2 C-6.49223216 0.39644899 -3.85645121 -0.22036864 0 0 Z " fill="#66A6CA" transform="translate(150,186)"/>
<path d="M0 0 C1.33877662 4.01632987 0.49049413 6.09632491 -1 10 C-3.125 11.4375 -3.125 11.4375 -5 12 C-3.41037341 7.96479403 -1.71767682 3.98188718 0 0 Z " fill="#5E85B3" transform="translate(49,243)"/>
<path d="M0 0 C0.33 0.66 0.66 1.32 1 2 C1.99 2.33 2.98 2.66 4 3 C4.33 3.66 4.66 4.32 5 5 C3.68 5.33 2.36 5.66 1 6 C1 5.34 1 4.68 1 4 C0.01 4.33 -0.98 4.66 -2 5 C-2 4.34 -2 3.68 -2 3 C-2.99 2.67 -3.98 2.34 -5 2 C-3.35 1.34 -1.7 0.68 0 0 Z " fill="#1F2950" transform="translate(378,213)"/>
<path d="M0 0 C0.66 0.99 1.32 1.98 2 3 C1.34 3 0.68 3 0 3 C-0.103125 3.721875 -0.20625 4.44375 -0.3125 5.1875 C-1.06793947 8.27793421 -2.15531315 10.41743841 -4 13 C-4.66 13 -5.32 13 -6 13 C-4.31326082 8.50202887 -2.18326108 4.27113698 0 0 Z " fill="#7082B6" transform="translate(101,141)"/>
<path d="M0 0 C1.65 0 3.3 0 5 0 C5.33 1.65 5.66 3.3 6 5 C1.25 4.125 1.25 4.125 -1 3 C-0.67 2.01 -0.34 1.02 0 0 Z " fill="#3095BD" transform="translate(75,223)"/>
<path d="M0 0 C1.32 0.33 2.64 0.66 4 1 C2.25 5.875 2.25 5.875 0 7 C-0.66 6.67 -1.32 6.34 -2 6 C-2 4.68 -2 3.36 -2 2 C-1.34 2 -0.68 2 0 2 C0 1.34 0 0.68 0 0 Z " fill="#267DBC" transform="translate(148,221)"/>
<path d="M0 0 C2 3 2 3 3 6 C2.34 6 1.68 6 1 6 C1 6.66 1 7.32 1 8 C-0.32 7.34 -1.64 6.68 -3 6 C-2.625 3.5625 -2.625 3.5625 -2 1 C-1.34 0.67 -0.68 0.34 0 0 Z " fill="#1E284D" transform="translate(294,214)"/>
<path d="M0 0 C0.66 0 1.32 0 2 0 C2.66 0.99 3.32 1.98 4 3 C4.66 2.01 5.32 1.02 6 0 C5.67 2.31 5.34 4.62 5 7 C3.68 6.67 2.36 6.34 1 6 C0.67 4.02 0.34 2.04 0 0 Z " fill="#505D7E" transform="translate(541,200)"/>
<path d="M0 0 C0.33 0.99 0.66 1.98 1 3 C1.99 2.67 2.98 2.34 4 2 C3.67 3.32 3.34 4.64 3 6 C0.625 5.75 0.625 5.75 -2 5 C-3.3125 2.9375 -3.3125 2.9375 -4 1 C-2 0 -2 0 0 0 Z " fill="#2367B3" transform="translate(123,169)"/>
<path d="M0 0 C1.65 0 3.3 0 5 0 C4.67 1.65 4.34 3.3 4 5 C3.01 5.33 2.02 5.66 1 6 C0.34 5.34 -0.32 4.68 -1 4 C-0.625 1.875 -0.625 1.875 0 0 Z " fill="#157EBA" transform="translate(82,234)"/>
<path d="M0 0 C0.33 0 0.66 0 1 0 C1 1.65 1 3.3 1 5 C1.99 5.33 2.98 5.66 4 6 C3 7 3 7 0.4375 7.0625 C-0.7690625 7.0315625 -0.7690625 7.0315625 -2 7 C-1.125 2.25 -1.125 2.25 0 0 Z M6 3 C6.33 3.66 6.66 4.32 7 5 C6.01 4.67 5.02 4.34 4 4 C4.66 3.67 5.32 3.34 6 3 Z " fill="#4E526E" transform="translate(207,217)"/>
<path d="M0 0 C0.598125 0.20625 1.19625 0.4125 1.8125 0.625 C0.8225 2.11 0.8225 2.11 -0.1875 3.625 C-1.1775 2.965 -2.1675 2.305 -3.1875 1.625 C-3.5175 2.615 -3.8475 3.605 -4.1875 4.625 C-4.5175 3.635 -4.8475 2.645 -5.1875 1.625 C-2.1875 -0.375 -2.1875 -0.375 0 0 Z M-8.1875 4.625 C-7.1975 4.955 -6.2075 5.285 -5.1875 5.625 C-7.1675 6.615 -7.1675 6.615 -9.1875 7.625 C-8.8575 6.635 -8.5275 5.645 -8.1875 4.625 Z " fill="#2292C3" transform="translate(169.1875,201.375)"/>
<path d="M0 0 C3.78611227 0.54087318 5.55400767 2.11722332 8 5 C8 5.66 8 6.32 8 7 C4.84859577 6.65930765 3.39218439 6.41923159 1.1875 4.0625 C0 2 0 2 0 0 Z " fill="#5B5F79" transform="translate(420,200)"/>
<path d="M0 0 C-2.64 1.98 -5.28 3.96 -8 6 C-8.33 5.34 -8.66 4.68 -9 4 C-8.34 4 -7.68 4 -7 4 C-7.33 2.68 -7.66 1.36 -8 0 C-4.71303767 -0.79953138 -3.28976808 -1.09658936 0 0 Z " fill="#8ADFE9" transform="translate(162,202)"/>
<path d="M0 0 C3.73487777 0.4979837 5.81237635 0.87491756 9 3 C9 3.66 9 4.32 9 5 C8.38125 4.79375 7.7625 4.5875 7.125 4.375 C6.42375 4.25125 5.7225 4.1275 5 4 C4.34 4.66 3.68 5.32 3 6 C3 5.34 3 4.68 3 4 C2.34 3.67 1.68 3.34 1 3 C1.33 2.34 1.66 1.68 2 1 C1.34 0.67 0.68 0.34 0 0 Z " fill="#555C78" transform="translate(418,183)"/>
<path d="M0 0 C0.99 0 1.98 0 3 0 C2.29445932 3.66881155 0.72264494 6.70450534 -1 10 C-1.33 10 -1.66 10 -2 10 C-2.17942163 6.05272412 -2.09350689 3.4019487 0 0 Z " fill="#6386B3" transform="translate(111,184)"/>
<path d="M0 0 C0.66 0 1.32 0 2 0 C1.1875 3.4375 1.1875 3.4375 0 7 C-0.99 7.33 -1.98 7.66 -3 8 C-2.25 2.25 -2.25 2.25 0 0 Z " fill="#3A4B8D" transform="translate(82,179)"/>
<path d="M0 0 C2.05078125 0.03255208 4.1015625 0.06510417 6.15234375 0.09765625 C5.82234375 0.75765625 5.49234375 1.41765625 5.15234375 2.09765625 C3.50234375 2.09765625 1.85234375 2.09765625 0.15234375 2.09765625 C-0.50765625 3.41765625 -1.16765625 4.73765625 -1.84765625 6.09765625 C-2.50765625 5.76765625 -3.16765625 5.43765625 -3.84765625 5.09765625 C-2.72914438 0.14424653 -2.72914438 0.14424653 0 0 Z " fill="#4E5575" transform="translate(477.84765625,164.90234375)"/>
<path d="M0 0 C1.32 0.66 2.64 1.32 4 2 C4 2.66 4 3.32 4 4 C3.34 4 2.68 4 2 4 C2.33 5.32 2.66 6.64 3 8 C1.02 7.34 -0.96 6.68 -3 6 C-2.01 5.34 -1.02 4.68 0 4 C0 2.68 0 1.36 0 0 Z " fill="#74BFDF" transform="translate(80,223)"/>
<path d="M0 0 C1.01382963 3.6208201 1.49897691 7.27811418 2 11 C1.01 11.495 1.01 11.495 0 12 C-1.29449495 8.11651516 -1.13203312 5.09302664 -1 1 C-0.67 0.67 -0.34 0.34 0 0 Z " fill="#202646" transform="translate(349,197)"/>
<path d="M0 0 C0.66 0.66 1.32 1.32 2 2 C1.34 4.31 0.68 6.62 0 9 C-2.97 9 -5.94 9 -9 9 C-9 8.67 -9 8.34 -9 8 C-6.69 8 -4.38 8 -2 8 C-1.34 5.36 -0.68 2.72 0 0 Z " fill="#7685A2" transform="translate(521,185)"/>
<path d="M0 0 C2 1.25 2 1.25 4 3 C4 7 4 7 3 9 C2.01 9 1.02 9 0 9 C0 6.03 0 3.06 0 0 Z " fill="#4D5474" transform="translate(234,179)"/>
<path d="M0 0 C0.99 0.33 1.98 0.66 3 1 C4.1875 4.5625 4.1875 4.5625 5 8 C3.35 7.67 1.7 7.34 0 7 C0 4.69 0 2.38 0 0 Z " fill="#1B91CC" transform="translate(152,172)"/>
<path d="M0 0 C-6.5 3 -6.5 3 -11 3 C-11 2.34 -11 1.68 -11 1 C-3.375 -1.125 -3.375 -1.125 0 0 Z " fill="#5D95B9" transform="translate(77,265)"/>
<path d="M0 0 C2.5 1.1875 2.5 1.1875 5 3 C5.3125 5.6875 5.3125 5.6875 5 8 C4.01 7.67 3.02 7.34 2 7 C0.8125 3.4375 0.8125 3.4375 0 0 Z " fill="#58A1CA" transform="translate(151,235)"/>
<path d="M0 0 C0.66 0.33 1.32 0.66 2 1 C0.25 4.875 0.25 4.875 -2 6 C-2.72159424 7.64363134 -3.39351421 9.31050386 -4 11 C-5.27115705 7.18652885 -4.54905091 5.64026964 -3 2 C-2.01 1.34 -1.02 0.68 0 0 Z " fill="#5D94BD" transform="translate(54,206)"/>
<path d="M0 0 C0.99 0.33 1.98 0.66 3 1 C3.33 2.65 3.66 4.3 4 6 C2.02 6 0.04 6 -2 6 C-1.34 4.02 -0.68 2.04 0 0 Z " fill="#232B52" transform="translate(322,197)"/>
<path d="M0 0 C-0.33 1.65 -0.66 3.3 -1 5 C-2.875 5.625 -2.875 5.625 -5 6 C-5.66 5.34 -6.32 4.68 -7 4 C-3.375 0 -3.375 0 0 0 Z " fill="#3D4261" transform="translate(319,183)"/>
<path d="M0 0 C0.598125 0.20625 1.19625 0.4125 1.8125 0.625 C-0.1675 1.615 -0.1675 1.615 -2.1875 2.625 C-2.1875 3.285 -2.1875 3.945 -2.1875 4.625 C-3.1775 4.625 -4.1675 4.625 -5.1875 4.625 C-5.5175 5.285 -5.8475 5.945 -6.1875 6.625 C-5.875 4.25 -5.875 4.25 -5.1875 1.625 C-2.1875 -0.375 -2.1875 -0.375 0 0 Z " fill="#3BC3E3" transform="translate(126.1875,224.375)"/>
<path d="M0 0 C1.98 0.99 1.98 0.99 4 2 C4.33 1.34 4.66 0.68 5 0 C5.66 1.98 6.32 3.96 7 6 C4.03 5.505 4.03 5.505 1 5 C0.67 3.35 0.34 1.7 0 0 Z " fill="#3A4061" transform="translate(249,216)"/>
<path d="M0 0 C-1.2065625 0.6496875 -1.2065625 0.6496875 -2.4375 1.3125 C-5.27846354 2.80474002 -5.27846354 2.80474002 -6 6 C-6.99 6 -7.98 6 -9 6 C-8.67 4.68 -8.34 3.36 -8 2 C-7.34 2 -6.68 2 -6 2 C-6 1.34 -6 0.68 -6 0 C-2.25 -1.125 -2.25 -1.125 0 0 Z " fill="#57D0E5" transform="translate(144,201)"/>
<path d="M0 0 C0.66 0.99 1.32 1.98 2 3 C-0.625 7.875 -0.625 7.875 -4 9 C-2.80100302 5.9168649 -1.52299523 2.93720508 0 0 Z " fill="#616FA4" transform="translate(75,191)"/>
<path d="M0 0 C4.95 0 9.9 0 15 0 C14.67 0.99 14.34 1.98 14 3 C9.38 2.34 4.76 1.68 0 1 C0 0.67 0 0.34 0 0 Z " fill="#999BAA" transform="translate(323,192)"/>
<path d="M0 0 C1.32 0 2.64 0 4 0 C2.75453595 3.73639216 1.36595047 4.18756513 -2 6 C-2.33 5.01 -2.66 4.02 -3 3 C-2.01 2.67 -1.02 2.34 0 2 C0 1.34 0 0.68 0 0 Z " fill="#65C0DA" transform="translate(109,237)"/>
<path d="M0 0 C0.33 0.66 0.66 1.32 1 2 C1.66 2 2.32 2 3 2 C3.33 4.31 3.66 6.62 4 9 C3.01 8.67 2.02 8.34 1 8 C0.40267181 5.23735711 0 2.83967231 0 0 Z " fill="#26B9D8" transform="translate(177,219)"/>
<path d="M0 0 C7.75 1.875 7.75 1.875 10 3 C10 3.66 10 4.32 10 5 C6.05140217 4.4359146 3.29120954 3.2568294 0 1 C0 0.67 0 0.34 0 0 Z " fill="#62667D" transform="translate(396,203)"/>
<path d="M0 0 C2.64 0.66 5.28 1.32 8 2 C6.75 3.5625 6.75 3.5625 5 5 C2.8125 4.6875 2.8125 4.6875 1 4 C0.67 2.68 0.34 1.36 0 0 Z " fill="#7BADD0" transform="translate(129,191)"/>
<path d="M0 0 C0.66 0 1.32 0 2 0 C2.05399736 1.45792884 2.09279177 2.91642712 2.125 4.375 C2.14820313 5.18710938 2.17140625 5.99921875 2.1953125 6.8359375 C2 9 2 9 0 11 C-1.28571429 3.57142857 -1.28571429 3.57142857 0 0 Z " fill="#1E2547" transform="translate(310,189)"/>
<path d="M0 0 C0 0.99 0 1.98 0 3 C0.66 3.33 1.32 3.66 2 4 C1.67 4.99 1.34 5.98 1 7 C-0.65 6.67 -2.3 6.34 -4 6 C-2.25 1.125 -2.25 1.125 0 0 Z " fill="#535A78" transform="translate(274,184)"/>
<path d="M0 0 C0.68707555 2.49064888 1 4.37886292 1 7 C0.34 7 -0.32 7 -1 7 C-1 7.66 -1 8.32 -1 9 C-1.66 9 -2.32 9 -3 9 C-2.44271087 5.65626525 -1.64826111 2.96687001 0 0 Z " fill="#5D617B" transform="translate(222,181)"/>
<path d="M0 0 C0 0.99 0 1.98 0 3 C-2.875 3.125 -2.875 3.125 -6 3 C-6.66 2.34 -7.32 1.68 -8 1 C-5.29120665 -0.35439668 -2.99066732 -0.06501451 0 0 Z " fill="#83EBED" transform="translate(180,185)"/>
<path d="M0 0 C0.66 0 1.32 0 2 0 C2.99 2.31 3.98 4.62 5 7 C4.01 7.495 4.01 7.495 3 8 C3 7.34 3 6.68 3 6 C2.01 5.67 1.02 5.34 0 5 C0 3.35 0 1.7 0 0 Z " fill="#639BC6" transform="translate(144,150)"/>
<path d="M0 0 C0.33 1.32 0.66 2.64 1 4 C-0.98 4.99 -0.98 4.99 -3 6 C-3.33 4.35 -3.66 2.7 -4 1 C-2 0 -2 0 0 0 Z " fill="#2269B2" transform="translate(134,131)"/>
<path d="M0 0 C1.32 0.66 2.64 1.32 4 2 C1.69 3.32 -0.62 4.64 -3 6 C-3 4.68 -3 3.36 -3 2 C-2.01 2 -1.02 2 0 2 C0 1.34 0 0.68 0 0 Z " fill="#47A3C6" transform="translate(86,254)"/>
<path d="M0 0 C0.66 0.33 1.32 0.66 2 1 C2 2.98 2 4.96 2 7 C1.34 7 0.68 7 0 7 C-0.33 7.66 -0.66 8.32 -1 9 C-1.125 2.25 -1.125 2.25 0 0 Z " fill="#1E58A2" transform="translate(46,254)"/>
<path d="M0 0 C0.33 0 0.66 0 1 0 C1.29296875 6.0546875 1.29296875 6.0546875 1 8 C0.01 8.66 -0.98 9.32 -2 10 C-1.125 2.25 -1.125 2.25 0 0 Z " fill="#2A5D9B" transform="translate(51,240)"/>
<path d="M0 0 C3.3 0.33 6.6 0.66 10 1 C10 1.33 10 1.66 10 2 C6.37 2.33 2.74 2.66 -1 3 C-0.67 2.01 -0.34 1.02 0 0 Z " fill="#545B7A" transform="translate(326,222)"/>
<path d="M0 0 C0.66 0.33 1.32 0.66 2 1 C1.34 2.32 0.68 3.64 0 5 C-1.65 5 -3.3 5 -5 5 C-5 4.34 -5 3.68 -5 3 C-2.625 1.3125 -2.625 1.3125 0 0 Z " fill="#444C6A" transform="translate(220,219)"/>
<path d="M0 0 C0.99 0 1.98 0 3 0 C3 0.99 3 1.98 3 3 C0.69 4.32 -1.62 5.64 -4 7 C-4 5.68 -4 4.36 -4 3 C-2.68 2.34 -1.36 1.68 0 1 C0 0.67 0 0.34 0 0 Z " fill="#77D4E4" transform="translate(137,216)"/>
<path d="M0 0 C2.375 0.3125 2.375 0.3125 5 1 C5.66 1.99 6.32 2.98 7 4 C5.1875 4.6875 5.1875 4.6875 3 5 C1.25 3.6875 1.25 3.6875 0 2 C0 1.34 0 0.68 0 0 Z " fill="#555A72" transform="translate(459,200)"/>
<path d="M0 0 C0.66 1.32 1.32 2.64 2 4 C-1.625 7 -1.625 7 -5 7 C-5 6.01 -5 5.02 -5 4 C-3.35 4 -1.7 4 0 4 C0 2.68 0 1.36 0 0 Z " fill="#86C5E0" transform="translate(159,177)"/>
<path d="M0 0 C0.99 0.33 1.98 0.66 3 1 C3.33 2.98 3.66 4.96 4 7 C3.01 6.67 2.02 6.34 1 6 C0.67 4.02 0.34 2.04 0 0 Z " fill="#2190C9" transform="translate(156,240)"/>
<path d="M0 0 C1.65 0.33 3.3 0.66 5 1 C5 1.66 5 2.32 5 3 C4.01 3 3.02 3 2 3 C2 3.66 2 4.32 2 5 C1.01 4.67 0.02 4.34 -1 4 C-0.67 2.68 -0.34 1.36 0 0 Z " fill="#207BB6" transform="translate(80,231)"/>
<path d="M0 0 C0 0.99 0 1.98 0 3 C-4.95 4.485 -4.95 4.485 -10 6 C-4 0 -4 0 0 0 Z " fill="#87CBDF" transform="translate(104,220)"/>
<path d="M0 0 C1.32 0.33 2.64 0.66 4 1 C4.33 2.65 4.66 4.3 5 6 C3.35 6.33 1.7 6.66 0 7 C0.66 6.67 1.32 6.34 2 6 C2 4.68 2 3.36 2 2 C1.34 1.34 0.68 0.68 0 0 Z " fill="#4A526D" transform="translate(507,217)"/>
<path d="M0 0 C1.98 0 3.96 0 6 0 C6.33 0.99 6.66 1.98 7 3 C4.36 3 1.72 3 -1 3 C-0.67 2.01 -0.34 1.02 0 0 Z " fill="#224190" transform="translate(82,216)"/>
<path d="M0 0 C3.125 -0.1875 3.125 -0.1875 6 0 C5.67 1.65 5.34 3.3 5 5 C4.34 4.34 3.68 3.68 3 3 C0.41645782 2.83312552 0.41645782 2.83312552 -2 3 C-1.34 2.01 -0.68 1.02 0 0 Z " fill="#54A1D1" transform="translate(154,208)"/>
<path d="M0 0 C2.4294516 3.6441774 2.16179575 5.71241272 2 10 C0.68 8.68 -0.64 7.36 -2 6 C-1.34 4.02 -0.68 2.04 0 0 Z " fill="#3F4564" transform="translate(466,204)"/>
<path d="M0 0 C0.82810826 3.31243305 1.09278428 5.65976579 1 9 C-0.32 9.33 -1.64 9.66 -3 10 C-2.01 6.7 -1.02 3.4 0 0 Z " fill="#696D82" transform="translate(550,190)"/>
<path d="M0 0 C0.99 0.66 1.98 1.32 3 2 C2.67 2.99 2.34 3.98 2 5 C0.35 5 -1.3 5 -3 5 C-2.67 4.01 -2.34 3.02 -2 2 C-1.34 2 -0.68 2 0 2 C0 1.34 0 0.68 0 0 Z " fill="#26429B" transform="translate(93,162)"/>
<path d="M0 0 C0.33 0 0.66 0 1 0 C1 2.64 1 5.28 1 8 C-0.32 7.01 -1.64 6.02 -3 5 C-1.125 1.125 -1.125 1.125 0 0 Z " fill="#2180BA" transform="translate(148,157)"/>
<path d="M0 0 C0.66 0.66 1.32 1.32 2 2 C1.67 2.66 1.34 3.32 1 4 C-0.32 3.34 -1.64 2.68 -3 2 C-2.01 1.34 -1.02 0.68 0 0 Z M-3 4 C-2.34 4 -1.68 4 -1 4 C-1 4.66 -1 5.32 -1 6 C-1.66 6 -2.32 6 -3 6 C-3 5.34 -3 4.68 -3 4 Z M-6 6 C-3 7 -3 7 -3 7 Z " fill="#28ABDC" transform="translate(102,223)"/>
<path d="M0 0 C1.9451 2.91765 2.45276317 4.62537285 3 8 C2.01 8.33 1.02 8.66 0 9 C-0.33 8.01 -0.66 7.02 -1 6 C-0.67 5.34 -0.34 4.68 0 4 C0 2.68 0 1.36 0 0 Z " fill="#555874" transform="translate(384,212)"/>
<path d="M0 0 C1.98 0.495 1.98 0.495 4 1 C3.67 1.99 3.34 2.98 3 4 C0.9375 4.6875 0.9375 4.6875 -1 5 C-0.67 3.35 -0.34 1.7 0 0 Z " fill="#1D87C6" transform="translate(149,165)"/>
</svg>
