<?xml version="1.0" encoding="UTF-8"?>
<svg version="1.1" xmlns="http://www.w3.org/2000/svg" width="287" height="272">
<path d="M0 0 C94.71 0 189.42 0 287 0 C287 89.76 287 179.52 287 272 C192.29 272 97.58 272 0 272 C0 182.24 0 92.48 0 0 Z " fill="#FDFEFE" transform="translate(0,0)"/>
<path d="M0 0 C10.49982472 9.92449186 16.77098896 24.21504088 23 37 C26.5772723 44.26827292 30.27981885 51.46202101 34.0625 58.625 C35.709529 61.74937152 37.35526166 64.87442208 39 68 C39.5671875 69.07765625 40.134375 70.1553125 40.71875 71.265625 C41.1621875 72.12671875 41.605625 72.9878125 42.0625 73.875 C42.42472656 74.57367188 42.78695312 75.27234375 43.16015625 75.9921875 C44.12527695 78.2994993 44.58415536 80.53922863 45 83 C43.97261719 83.50789063 42.94523438 84.01578125 41.88671875 84.5390625 C32.79577442 89.04876954 23.82367739 93.70671421 14.98828125 98.703125 C14.00214844 99.25484375 13.01601562 99.8065625 12 100.375 C11.113125 100.87773437 10.22625 101.38046875 9.3125 101.8984375 C7 103 7 103 4 103 C3.18501438 101.3970947 2.37310073 99.79262722 1.5625 98.1875 C1.11003906 97.29417969 0.65757812 96.40085937 0.19140625 95.48046875 C-1 93 -1 93 -2 90 C-2.66 89.67 -3.32 89.34 -4 89 C-4.70779562 87.35037956 -5.36814066 85.68017142 -6 84 C-6.81880802 82.36763274 -7.65242931 80.74261966 -8.5 79.125 C-10.53391997 75.1171577 -11.9564723 71.36384313 -13 67 C-13.99 67 -14.98 67 -16 67 C-16.12383057 67.56984619 -16.24766113 68.13969238 -16.37524414 68.72680664 C-17.02960016 71.10770109 -17.92249372 73.14898017 -18.99609375 75.37109375 C-19.38990234 76.19287109 -19.78371094 77.01464844 -20.18945312 77.86132812 C-20.60130859 78.71146484 -21.01316406 79.56160156 -21.4375 80.4375 C-24.93792286 87.62209927 -24.93792286 87.62209927 -28 95 C-28.66 95 -29.32 95 -30 95 C-30.226875 95.804375 -30.45375 96.60875 -30.6875 97.4375 C-31.76296018 100.35660621 -32.90004799 102.70298249 -34.4375 105.375 C-36.14452069 108.34220362 -37.54016957 111.21209658 -38.6875 114.4375 C-40 118 -40 118 -42 120 C-42.67102104 121.66491831 -43.33710292 123.33183044 -44 125 C-47.96960692 131.938565 -52.52670713 137.74405422 -60 141 C-64.34875954 141.83193661 -67.23685904 141.50876064 -71 139 C-72.60875 138.62875 -72.60875 138.62875 -74.25 138.25 C-79.66237643 136.44587452 -83.38997174 133.76282796 -86.29296875 128.78125 C-88.69742572 123.57303995 -90.89341533 118.68024598 -89 113 C-88.34 113 -87.68 113 -87 113 C-86.67 111.845 -86.34 110.69 -86 109.5 C-83.73753839 102.70194319 -80.33360469 96.44490156 -77.06835938 90.08837891 C-75.3543228 86.73786042 -73.67836189 83.368488 -72 80 C-71 78 -70 76 -69 74 C-68.34 74 -67.68 74 -67 74 C-66.9071875 73.32453125 -66.814375 72.6490625 -66.71875 71.953125 C-65.82210729 68.269093 -64.22838054 65.09714037 -62.5 61.75 C-62.15050293 61.06341309 -61.80100586 60.37682617 -61.44091797 59.66943359 C-60.30224792 57.44190717 -59.15242707 55.22043766 -58 53 C-57.39333496 51.8258252 -57.39333496 51.8258252 -56.77441406 50.62792969 C-55.56402148 48.29038891 -54.34638004 45.9568164 -53.125 43.625 C-52.74408203 42.8937793 -52.36316406 42.16255859 -51.97070312 41.40917969 C-49.23509095 36.23509095 -49.23509095 36.23509095 -47 34 C-46.31240367 32.34185842 -45.65094044 30.67287141 -45 29 C-43.75571005 26.33047179 -42.44112957 23.69720547 -41.125 21.0625 C-40.78597656 20.37220703 -40.44695312 19.68191406 -40.09765625 18.97070312 C-37.99859906 14.76061694 -35.82218672 10.77275589 -33 7 C-32.34 7 -31.68 7 -31 7 C-30.7525 6.4225 -30.505 5.845 -30.25 5.25 C-28.24019862 1.63235752 -26.1249988 -0.46428628 -22.375 -2.25 C-14.95249088 -3.89944647 -6.67569186 -4.04302465 0 0 Z " fill="#2573B8" transform="translate(151,48)"/>
<path d="M0 0 C-0.36215791 2.60196532 -0.68026145 3.72833148 -2.71484375 5.45703125 C-3.44832031 5.90433594 -4.18179688 6.35164062 -4.9375 6.8125 C-6.15566406 7.58013672 -6.15566406 7.58013672 -7.3984375 8.36328125 C-8.25695312 8.90339844 -9.11546875 9.44351563 -10 10 C-15.38864077 13.67256594 -20.67369842 17.46990808 -25.875 21.40234375 C-46.62102689 37 -46.62102689 37 -50 37 C-50 37.66 -50 38.32 -50 39 C-51.94589084 40.54807798 -53.89181252 41.96864124 -55.9375 43.375 C-56.55633057 43.8090918 -57.17516113 44.24318359 -57.81274414 44.69042969 C-59.87090124 46.13315621 -61.93518061 47.56682763 -64 49 C-66.24311951 50.56287772 -68.48444961 52.12819576 -70.72290039 53.69775391 C-72.16209159 54.70650461 -73.60385389 55.71160053 -75.04858398 56.71240234 C-79.11209999 59.55555132 -82.89090373 62.54636761 -86.55688477 65.88964844 C-88 67 -88 67 -90 67 C-90 67.66 -90 68.32 -90 69 C-92.32137397 70.72959138 -94.64930414 72.34471344 -97.0625 73.9375 C-98.53124918 74.92645558 -99.99866482 75.91739413 -101.46484375 76.91015625 C-102.21749512 77.41949707 -102.97014648 77.92883789 -103.74560547 78.45361328 C-107.25466824 80.86063122 -110.69538581 83.35653315 -114.125 85.875 C-114.72707275 86.31448975 -115.32914551 86.75397949 -115.94946289 87.20678711 C-118.67280854 89.21187938 -121.29141773 91.24853883 -123.8671875 93.4453125 C-126.94725115 96.05073671 -130.26407368 98.21704689 -133.63574219 100.42480469 C-138.34526113 103.56253871 -142.87076919 106.96398782 -147.42578125 110.3203125 C-151.82373799 113.52983687 -156.21531489 116.40026267 -161 119 C-161.73347656 119.40605469 -162.46695313 119.81210937 -163.22265625 120.23046875 C-163.82980469 120.54628906 -164.43695313 120.86210937 -165.0625 121.1875 C-165.67222656 121.51105469 -166.28195313 121.83460938 -166.91015625 122.16796875 C-173.68081377 124.86357632 -181.40590436 124.25555096 -188.5625 124.3125 C-190.39071289 124.35600586 -190.39071289 124.35600586 -192.25585938 124.40039062 C-194.01833008 124.41295898 -194.01833008 124.41295898 -195.81640625 124.42578125 C-197.41657593 124.44765503 -197.41657593 124.44765503 -199.04907227 124.4699707 C-202.73616541 123.88275681 -204.33877048 122.56893254 -207 120 C-210.07861876 115.38207185 -209.94046167 111.40443387 -209 106 C-207.04238429 101.46096875 -204.63506378 97.27461422 -202.14208984 93.01318359 C-200.21906161 89.62342498 -198.52826538 86.12277494 -196.8125 82.625 C-196.13998472 81.29133274 -195.46683029 79.95798754 -194.79296875 78.625 C-193.70198544 76.45319256 -192.69885783 74.29888882 -191.73828125 72.0625 C-190.66067848 69.70311708 -189.78160701 67.88529842 -188 66 C-185.41886845 65.03957896 -183.07781941 64.63369746 -180.34375 64.328125 C-177.8385583 64.14606084 -177.8385583 64.14606084 -175.5 62.375 C-171.53743155 60.19558735 -167.42800919 60.76785195 -163 61 C-168.56299686 57.28527165 -168.56299686 57.28527165 -175 57 C-175.928125 57.495 -176.85625 57.99 -177.8125 58.5 C-181.72189942 60.33971738 -184.75315307 60.90701122 -189 60 C-193.17024834 57.24606242 -195.80542899 54.46592002 -198 50 C-198.53183981 44.81780481 -198.45445671 39.33886698 -195.64453125 34.8203125 C-192.53977905 31.85054953 -190.34508697 31.05477571 -186.0625 30.375 C-180.33315277 30.85337268 -175.83231675 33.40259565 -171.5625 37.125 C-169.81311774 40.34386336 -170.0712879 41.18444241 -170.3125 44.6875 C-170.33451372 47.39203561 -170.33451372 47.39203561 -169 50 C-164.62533716 53.77646441 -159.27149426 56.31110473 -154.13818359 58.89575195 C-152.11155442 59.9423886 -150.17130738 61.07634379 -148.21875 62.25390625 C-143.8762286 64.60961871 -140.8105944 64.95083775 -136 64 C-132.80526576 62.61649526 -129.94078416 60.85202056 -127 59 C-126.030625 58.525625 -125.06125 58.05125 -124.0625 57.5625 C-121.39292363 56.20047124 -118.87248708 54.74120285 -116.3125 53.1875 C-112.59454035 50.93982439 -108.85409468 48.7464875 -105.0625 46.625 C-104.16660156 46.12226563 -103.27070312 45.61953125 -102.34765625 45.1015625 C-100 44 -100 44 -97 44 C-97 43.34 -97 42.68 -97 42 C-92.78420107 38.87844264 -88.17741991 36.09671809 -83.0625 34.8125 C-79.96108998 33.98967693 -79.02781409 33.34799527 -77 31 C-76.34 31 -75.68 31 -75 31 C-75 30.34 -75 29.68 -75 29 C-74.33613281 28.75765625 -73.67226562 28.5153125 -72.98828125 28.265625 C-67.36068773 26.15564517 -67.36068773 26.15564517 -62.375 22.875 C-59.07780304 20.27194977 -56.09643191 19.83317259 -52 19 C-52 18.34 -52 17.68 -52 17 C-51.37351563 16.80664062 -50.74703125 16.61328125 -50.1015625 16.4140625 C-49.28429687 16.15367187 -48.46703125 15.89328125 -47.625 15.625 C-46.40683594 15.24214844 -46.40683594 15.24214844 -45.1640625 14.8515625 C-42.83540815 14.10145717 -42.83540815 14.10145717 -41 12 C-38.49363378 11.17887487 -35.96374344 10.53704728 -33.41015625 9.87890625 C-30.98021104 9.1985287 -30.98021104 9.1985287 -29.6394043 7.54541016 C-27.62960608 5.65084237 -26.00510529 5.15532176 -23.359375 4.39453125 C-22.45316406 4.13349609 -21.54695312 3.87246094 -20.61328125 3.60351562 C-19.66839844 3.34248047 -18.72351563 3.08144531 -17.75 2.8125 C-16.35587891 2.40354492 -16.35587891 2.40354492 -14.93359375 1.98632812 C-9.79045362 0.53504601 -5.34244392 -0.33205798 0 0 Z " fill="#268DC1" transform="translate(229,137)"/>
<path d="M0 0 C2.83038192 1.13339385 3.40957835 2.88811835 4.76806641 5.57055664 C5.27853516 6.56313477 5.78900391 7.55571289 6.31494141 8.57836914 C7.09611328 10.15231445 7.09611328 10.15231445 7.89306641 11.75805664 C8.67423828 13.30106445 8.67423828 13.30106445 9.47119141 14.87524414 C10.95949863 17.82930848 12.42760408 20.79260539 13.89306641 23.75805664 C15.22390498 26.42597209 16.55858455 29.09196209 17.89306641 31.75805664 C18.51292247 32.99760777 19.13271556 34.2371904 19.75244141 35.47680664 C20.72494708 37.42207305 21.69770276 39.36721257 22.67114258 41.31201172 C24.48175381 44.93031989 26.28755679 48.5508941 28.08447266 52.17602539 C28.43993164 52.89145508 28.79539062 53.60688477 29.16162109 54.34399414 C29.83971217 55.70905682 30.51623535 57.07489987 31.19091797 58.44165039 C33.55208326 63.18849982 36.19572967 67.65052182 39.01806641 72.13305664 C41.05692647 75.67382507 41.56245076 78.70801495 41.89306641 82.75805664 C42.55306641 82.75805664 43.21306641 82.75805664 43.89306641 82.75805664 C44.77741528 85.41110327 45.17521954 87.37447296 45.33056641 90.13305664 C45.39115234 90.88329102 45.45173828 91.63352539 45.51416016 92.40649414 C44.74458163 95.3202443 43.44214946 96.95309289 41.04858398 98.7722168 C36.21167551 100.98440803 30.72598293 100.38099029 25.51806641 100.25805664 C24.32439453 100.26063477 23.13072266 100.26321289 21.90087891 100.26586914 C12.19321196 100.15848344 4.22842311 98.45136899 -3.10693359 91.75805664 C-11.49208735 82.71908973 -16.62560878 72.08739848 -21.65991211 60.97216797 C-22.91869051 58.20727872 -24.21355053 55.58581052 -25.81396484 53.00024414 C-27.10693359 50.75805664 -27.10693359 50.75805664 -27.10693359 47.75805664 C-27.76693359 47.75805664 -28.42693359 47.75805664 -29.10693359 47.75805664 C-29.34927734 47.08258789 -29.59162109 46.40711914 -29.84130859 45.71118164 C-31.8133025 40.18072705 -31.8133025 40.18072705 -35.29443359 35.57055664 C-38.02384775 32.84114249 -37.98536723 30.53877054 -38.10693359 26.75805664 C-36.43115234 24.56274414 -36.43115234 24.56274414 -33.79443359 22.63305664 C-32.79283203 21.88282227 -31.79123047 21.13258789 -30.75927734 20.35961914 C-29.54234756 19.49170469 -28.32485031 18.62458562 -27.10693359 17.75805664 C-25.60713898 16.66320321 -24.10850634 15.56675685 -22.61083984 14.46899414 C-18.81924449 11.70176465 -15.01476357 8.95432151 -11.17919922 6.24829102 C-9.81403467 5.26655628 -8.46793501 4.25766671 -7.14404297 3.22094727 C-2.58752547 -0.29713068 -2.58752547 -0.29713068 0 0 Z " fill="#2CB1D8" transform="translate(211.10693359375,160.241943359375)"/>
<path d="M0 0 C4.326565 1.95056641 7.5412772 4.00360629 9.85546875 8.26171875 C9.75518507 9.82447277 9.65054284 11.38694964 9.54296875 12.94921875 C9.52095503 15.65375436 9.52095503 15.65375436 10.85546875 18.26171875 C15.23000983 22.03807805 20.58414776 24.57482468 25.71875 27.15673828 C27.74180465 28.20293862 29.66914223 29.34269964 31.61328125 30.52734375 C34.67533515 32.16535812 36.21091385 32.76913047 39.60546875 32.63671875 C40.3428125 32.62382812 41.08015625 32.6109375 41.83984375 32.59765625 C44.16484525 32.35184224 44.16484525 32.35184224 46.85546875 30.26171875 C48.34046875 30.75671875 48.34046875 30.75671875 49.85546875 31.26171875 C48.53546875 32.91171875 47.21546875 34.56171875 45.85546875 36.26171875 C47.34046875 36.75671875 47.34046875 36.75671875 48.85546875 37.26171875 C51.42889689 39.32046126 52.68734912 40.51452039 53.41796875 43.76171875 C52.85546875 46.26171875 52.85546875 46.26171875 50.79296875 48.57421875 C47.13925704 50.67315952 45.00627273 50.87665267 40.85546875 50.26171875 C37.52708497 47.39242239 36.89332715 43.41315234 35.85546875 39.26171875 C34.59734375 39.05546875 33.33921875 38.84921875 32.04296875 38.63671875 C26.05117638 37.33913314 21.08261376 34.36869466 15.85546875 31.26171875 C15.85546875 30.27171875 15.85546875 29.28171875 15.85546875 28.26171875 C12.03200192 26.12769075 9.26368148 24.60048684 4.85546875 25.26171875 C3.92734375 25.75671875 2.99921875 26.25171875 2.04296875 26.76171875 C-1.86643067 28.60143613 -4.89768432 29.16872997 -9.14453125 28.26171875 C-13.31477959 25.50778117 -15.94996024 22.72763877 -18.14453125 18.26171875 C-18.67637106 13.07952356 -18.59898796 7.60058573 -15.7890625 3.08203125 C-11.09037285 -1.41236754 -6.04276149 -2.08029494 0 0 Z " fill="#51C8E2" transform="translate(49.14453125,168.73828125)"/>
<path d="M0 0 C-0.36215791 2.60196532 -0.68026145 3.72833148 -2.71484375 5.45703125 C-3.81505859 6.12798828 -3.81505859 6.12798828 -4.9375 6.8125 C-5.74960938 7.32425781 -6.56171875 7.83601562 -7.3984375 8.36328125 C-8.25695312 8.90339844 -9.11546875 9.44351563 -10 10 C-16.12207375 14.17242872 -22.10170782 18.51832821 -28 23 C-29.33277196 24.00074807 -30.66596178 25.00094054 -32 26 C-32.66 25.67 -33.32 25.34 -34 25 C-33.01 24.4121875 -33.01 24.4121875 -32 23.8125 C-29.70833333 22.14583333 -29.70833333 22.14583333 -29.75 19.3125 C-29.8325 18.549375 -29.915 17.78625 -30 17 C-28.68 16.67 -27.36 16.34 -26 16 C-26 15.67 -26 15.34 -26 15 C-23.525 14.505 -23.525 14.505 -21 14 C-21.495 11.525 -21.495 11.525 -22 9 C-22.598125 9.165 -23.19625 9.33 -23.8125 9.5 C-26 10 -26 10 -29 10 C-29.23074219 10.65097656 -29.46148437 11.30195313 -29.69921875 11.97265625 C-30.12847656 12.64167969 -30.55773437 13.31070313 -31 14 C-33.20703125 14.43359375 -33.20703125 14.43359375 -35.8125 14.4375 C-39.79708412 14.67358085 -40.76776634 14.81990042 -44.0625 17.375 C-46.14103375 19.90818608 -46.14103375 19.90818608 -47 23 C-48.65 23 -50.3 23 -52 23 C-52 22.34 -52 21.68 -52 21 C-53.27450447 21.59638333 -54.54446877 22.20247416 -55.8125 22.8125 C-56.52019531 23.14894531 -57.22789062 23.48539063 -57.95703125 23.83203125 C-60.05795105 25.03313072 -61.49061278 26.10969487 -63 28 C-63 28.99 -63 29.98 -63 31 C-64.010625 30.938125 -65.02125 30.87625 -66.0625 30.8125 C-70.66073705 31.03146367 -73.00978918 31.76548194 -77 34 C-78.04289755 36.06890419 -78.04289755 36.06890419 -78 38 C-78.886875 38.12375 -79.77375 38.2475 -80.6875 38.375 C-85.40617446 39.26531594 -88.09746844 40.07490515 -91.5 43.5625 C-94.24032742 46.23431923 -95.3199053 46.53998816 -99 47 C-101.74858021 47.63215742 -101.74858021 47.63215742 -104 49 C-104.89386164 51.54775306 -104.89386164 51.54775306 -105 54 C-105.845625 53.7525 -106.69125 53.505 -107.5625 53.25 C-112.08781425 52.92088624 -114.46435892 54.29469887 -118 57 C-120.48554178 59.61732166 -120.48554178 59.61732166 -121 63 C-121.66 63 -122.32 63 -123 63 C-123.33 62.34 -123.66 61.68 -124 61 C-125.65 61.66 -127.3 62.32 -129 63 C-129.33 62.34 -129.66 61.68 -130 61 C-127.93206829 59.31501861 -126.13615062 58.05373772 -123.64453125 57.0703125 C-121.01569533 56.00635232 -118.78014979 54.74618014 -116.375 53.25 C-112.63866234 50.97570751 -108.88087613 48.75924467 -105.0625 46.625 C-104.16660156 46.12226563 -103.27070312 45.61953125 -102.34765625 45.1015625 C-100 44 -100 44 -97 44 C-97 43.34 -97 42.68 -97 42 C-92.78420107 38.87844264 -88.17741991 36.09671809 -83.0625 34.8125 C-79.96108998 33.98967693 -79.02781409 33.34799527 -77 31 C-76.34 31 -75.68 31 -75 31 C-75 30.34 -75 29.68 -75 29 C-74.33613281 28.75765625 -73.67226562 28.5153125 -72.98828125 28.265625 C-67.36068773 26.15564517 -67.36068773 26.15564517 -62.375 22.875 C-59.07780304 20.27194977 -56.09643191 19.83317259 -52 19 C-52 18.34 -52 17.68 -52 17 C-51.37351562 16.80664062 -50.74703125 16.61328125 -50.1015625 16.4140625 C-49.28429687 16.15367187 -48.46703125 15.89328125 -47.625 15.625 C-46.81289062 15.36976563 -46.00078125 15.11453125 -45.1640625 14.8515625 C-42.83540815 14.10145717 -42.83540815 14.10145717 -41 12 C-38.49363378 11.17887487 -35.96374344 10.53704728 -33.41015625 9.87890625 C-30.98021104 9.1985287 -30.98021104 9.1985287 -29.6394043 7.54541016 C-27.62960608 5.65084237 -26.00510529 5.15532176 -23.359375 4.39453125 C-22.45316406 4.13349609 -21.54695313 3.87246094 -20.61328125 3.60351562 C-19.66839844 3.34248047 -18.72351563 3.08144531 -17.75 2.8125 C-16.35587891 2.40354492 -16.35587891 2.40354492 -14.93359375 1.98632812 C-9.79045362 0.53504601 -5.34244392 -0.33205798 0 0 Z " fill="#7DE3EB" transform="translate(229,137)"/>
<path d="M0 0 C0 0.66 0 1.32 0 2 C1.98 1.67 3.96 1.34 6 1 C6.2475 1.639375 6.495 2.27875 6.75 2.9375 C7.80148727 5.19060573 7.80148727 5.19060573 10.0625 5.625 C10.701875 5.74875 11.34125 5.8725 12 6 C12.33 6.66 12.66 7.32 13 8 C13.66 7.34 14.32 6.68 15 6 C16.86707956 8.74570524 16.99611083 10.05347608 16.75 13.4375 C16.09355813 16.5555989 15.48856203 19.18827172 14 22 C13.01 22.33 12.02 22.66 11 23 C10.34 22.67 9.68 22.34 9 22 C9 21.34 9 20.68 9 20 C8.01 20 7.02 20 6 20 C6.185625 20.804375 6.37125 21.60875 6.5625 22.4375 C6.706875 23.283125 6.85125 24.12875 7 25 C6 26 6 26 2.25 26.3125 C-0.94019689 26.26684423 -1.96606343 26.02036194 -4.8125 24.3125 C-7.98159585 20.96231296 -9.89840797 18.50910343 -10.21484375 13.80859375 C-10.12332031 12.69613281 -10.03179688 11.58367187 -9.9375 10.4375 C-9.82728516 8.76494141 -9.82728516 8.76494141 -9.71484375 7.05859375 C-8.41918613 1.51487835 -5.61725781 -0.62413976 0 0 Z " fill="#2CB0D9" transform="translate(41,170)"/>
<path d="M0 0 C-0.36215791 2.60196532 -0.68026145 3.72833148 -2.71484375 5.45703125 C-3.44832031 5.90433594 -4.18179688 6.35164062 -4.9375 6.8125 C-5.74960938 7.32425781 -6.56171875 7.83601562 -7.3984375 8.36328125 C-8.25695312 8.90339844 -9.11546875 9.44351563 -10 10 C-16.12207375 14.17242872 -22.10170782 18.51832821 -28 23 C-29.33277196 24.00074807 -30.66596178 25.00094054 -32 26 C-32.66 25.67 -33.32 25.34 -34 25 C-33.34 24.608125 -32.68 24.21625 -32 23.8125 C-29.70833333 22.14583333 -29.70833333 22.14583333 -29.75 19.3125 C-29.87375 18.1678125 -29.87375 18.1678125 -30 17 C-28.68 16.67 -27.36 16.34 -26 16 C-26 15.67 -26 15.34 -26 15 C-24.35 14.67 -22.7 14.34 -21 14 C-21.33 12.35 -21.66 10.7 -22 9 C-22.5775 9.226875 -23.155 9.45375 -23.75 9.6875 C-26 10 -26 10 -28.140625 8.51953125 C-28.75421875 8.01808594 -29.3678125 7.51664063 -30 7 C-8.44897959 -0.35204082 -8.44897959 -0.35204082 0 0 Z " fill="#77E3ED" transform="translate(229,137)"/>
<path d="M0 0 C3.00836847 2.77220573 4.90092463 5.3220944 6.69140625 8.9921875 C7.16126953 9.94480469 7.63113281 10.89742187 8.11523438 11.87890625 C8.59283203 12.86761719 9.07042969 13.85632813 9.5625 14.875 C10.04396484 15.85597656 10.52542969 16.83695313 11.02148438 17.84765625 C11.94891665 19.73824034 12.87181196 21.63105869 13.78955078 23.52636719 C14.75280654 25.49484386 15.75803612 27.44276765 16.77734375 29.3828125 C17.97600133 31.94862904 18.58929896 34.20723296 19 37 C7.0859375 42.95703125 7.0859375 42.95703125 4.98730469 43.99853516 C3.17685889 44.91087529 1.3878216 45.86538772 -0.3984375 46.82421875 C-1.68621094 47.40623047 -1.68621094 47.40623047 -3 48 C-3.66 47.67 -4.32 47.34 -5 47 C-3 44 -3 44 -0.8359375 43.26953125 C-0.02382812 43.11871094 0.78828125 42.96789062 1.625 42.8125 C2.44226563 42.65394531 3.25953125 42.49539062 4.1015625 42.33203125 C4.72804687 42.22246094 5.35453125 42.11289063 6 42 C6.144375 41.195625 6.28875 40.39125 6.4375 39.5625 C7 37 7 37 8 36 C9.99958364 35.95919217 12.00045254 35.95745644 14 36 C14.88336837 33.5332355 15.1312406 32.36140628 14.22265625 29.859375 C13.83980469 29.16328125 13.45695312 28.4671875 13.0625 27.75 C12.68222656 27.04359375 12.30195313 26.3371875 11.91015625 25.609375 C11.60980469 25.07828125 11.30945313 24.5471875 11 24 C10.01 24 9.02 24 8 24 C8 23.01 8 22.02 8 21 C7.34 21 6.68 21 6 21 C5.83197949 19.54182203 5.66562857 18.0834516 5.5 16.625 C5.4071875 15.81289062 5.314375 15.00078125 5.21875 14.1640625 C5 12 5 12 5 10 C4.195625 9.7525 3.39125 9.505 2.5625 9.25 C0 8 0 8 -0.875 6.125 C-1.0085288 3.85501045 -0.69315355 2.1564777 0 0 Z " fill="#43B7DC" transform="translate(177,94)"/>
<path d="M0 0 C-0.33 1.32 -0.66 2.64 -1 4 C-1.886875 4.12375 -2.77375 4.2475 -3.6875 4.375 C-8.40617446 5.26531594 -11.09746844 6.07490515 -14.5 9.5625 C-17.24032742 12.23431923 -18.3199053 12.53998816 -22 13 C-24.74858021 13.63215742 -24.74858021 13.63215742 -27 15 C-27.89386164 17.54775306 -27.89386164 17.54775306 -28 20 C-28.845625 19.7525 -29.69125 19.505 -30.5625 19.25 C-35.08781425 18.92088624 -37.46435892 20.29469887 -41 23 C-43.48554178 25.61732166 -43.48554178 25.61732166 -44 29 C-44.66 29 -45.32 29 -46 29 C-46.33 28.34 -46.66 27.68 -47 27 C-48.65 27.66 -50.3 28.32 -52 29 C-52.33 28.34 -52.66 27.68 -53 27 C-50.93206829 25.31501861 -49.13615062 24.05373772 -46.64453125 23.0703125 C-44.01569533 22.00635232 -41.78014979 20.74618014 -39.375 19.25 C-35.63866234 16.97570751 -31.88087613 14.75924467 -28.0625 12.625 C-27.16660156 12.12226563 -26.27070312 11.61953125 -25.34765625 11.1015625 C-23 10 -23 10 -20 10 C-20 9.34 -20 8.68 -20 8 C-5.43283582 -2.71641791 -5.43283582 -2.71641791 0 0 Z " fill="#4DC7E1" transform="translate(152,171)"/>
<path d="M0 0 C3.375 0.6875 3.375 0.6875 4.375 1.6875 C3.775 8.2875 3.775 8.2875 1.375 10.6875 C-5.20192308 10.11057692 -5.20192308 10.11057692 -6.625 8.6875 C-6.875 5.25 -6.875 5.25 -6.625 1.6875 C-3.625 -0.3125 -3.625 -0.3125 0 0 Z " fill="#8DEEF4" transform="translate(94.625,207.3125)"/>
<path d="M0 0 C2.88374315 1.30376127 3.4951065 2.93253816 4.9140625 5.734375 C5.42453125 6.72695312 5.935 7.71953125 6.4609375 8.7421875 C6.98171875 9.79148438 7.5025 10.84078125 8.0390625 11.921875 C8.55984375 12.95054687 9.080625 13.97921875 9.6171875 15.0390625 C10.63795288 17.06512711 11.65114957 19.09502501 12.65625 21.12890625 C13.50371098 22.84058591 14.36084779 24.54756863 15.234375 26.24609375 C17.19959989 30.06736437 18.79871248 33.78737494 20.0390625 37.921875 C18.5540625 37.426875 18.5540625 37.426875 17.0390625 36.921875 C15.9765625 34.609375 15.9765625 34.609375 15.0390625 31.921875 C14.6884375 31.261875 14.3378125 30.601875 13.9765625 29.921875 C12.89614609 27.61698665 12.45619169 25.42465011 12.0390625 22.921875 C11.3790625 22.921875 10.7190625 22.921875 10.0390625 22.921875 C7.07681048 20.40844904 5.69161388 18.72842471 5.0390625 14.921875 C4.7090625 13.7875 4.3790625 12.653125 4.0390625 11.484375 C3.23815886 8.63115578 2.56857713 5.83420546 2.0390625 2.921875 C-0.6009375 3.251875 -3.2409375 3.581875 -5.9609375 3.921875 C-2.54718064 -0.1014813 -2.54718064 -0.1014813 0 0 Z " fill="#5DC9DF" transform="translate(210.9609375,160.078125)"/>
<path d="M0 0 C5.77289654 0.07268035 10.38549868 2.32268054 14.5 6.3125 C15.4375 8.3125 15.4375 8.3125 15.125 10.5625 C14.898125 11.14 14.67125 11.7175 14.4375 12.3125 C13.7775 11.6525 13.1175 10.9925 12.4375 10.3125 C11.4475 10.8075 11.4475 10.8075 10.4375 11.3125 C10.4375 10.3225 10.4375 9.3325 10.4375 8.3125 C8.7875 8.3125 7.1375 8.3125 5.4375 8.3125 C5.1075 6.9925 4.7775 5.6725 4.4375 4.3125 C2.4575 4.3125 0.4775 4.3125 -1.5625 4.3125 C-1.5625 3.6525 -1.5625 2.9925 -1.5625 2.3125 C-2.5525 1.9825 -3.5425 1.6525 -4.5625 1.3125 C-3.5625 0.3125 -3.5625 0.3125 0 0 Z " fill="#48CCE1" transform="translate(42.5625,167.6875)"/>
<path d="M0 0 C9.06906122 3.39689219 15.29455635 14.88536587 19.4375 23.1875 C19.4375 23.8475 19.4375 24.5075 19.4375 25.1875 C18.4475 25.1875 17.4575 25.1875 16.4375 25.1875 C16.06625 24.218125 15.695 23.24875 15.3125 22.25 C12.84858441 16.50086363 9.69182511 10.6903834 4.4375 7.1875 C4.4375 6.5275 4.4375 5.8675 4.4375 5.1875 C3.4475 4.8575 2.4575 4.5275 1.4375 4.1875 C1.4375 3.5275 1.4375 2.8675 1.4375 2.1875 C0.47328125 2.12691406 -0.4909375 2.06632812 -1.484375 2.00390625 C-2.74765625 1.92011719 -4.0109375 1.83632813 -5.3125 1.75 C-7.19195312 1.62818359 -7.19195312 1.62818359 -9.109375 1.50390625 C-11.74567553 1.26234478 -14.04287294 0.94466066 -16.5625 0.1875 C-11.77748545 -2.20500727 -5.06961362 -1.20492577 0 0 Z " fill="#5DADD4" transform="translate(146.5625,45.8125)"/>
<path d="M0 0 C3.32124029 3.67708747 5.16032543 7.36438364 7.0625 11.8671875 C8.16932543 14.38521536 9.57697203 16.64891031 11 19 C14 25.28899083 14 25.28899083 14 28 C13.34 28 12.68 28 12 28 C11.71125 27.360625 11.4225 26.72125 11.125 26.0625 C10.17176549 23.84793921 10.17176549 23.84793921 8 23 C7.87625 22.030625 7.7525 21.06125 7.625 20.0625 C7.3508355 16.88417172 7.3508355 16.88417172 4.9375 15.625 C4.298125 15.41875 3.65875 15.2125 3 15 C3.66 14.67 4.32 14.34 5 14 C4.3566152 12.686298 3.71021785 11.37407102 3.0625 10.0625 C2.70285156 9.33160156 2.34320313 8.60070312 1.97265625 7.84765625 C1.13628173 6.03750973 1.13628173 6.03750973 0 5 C-0.04063832 3.33382885 -0.042721 1.66611905 0 0 Z " fill="#63CCE0" transform="translate(239,214)"/>
<path d="M0 0 C1.4540625 0.0309375 1.4540625 0.0309375 2.9375 0.0625 C2.9375 1.0525 2.9375 2.0425 2.9375 3.0625 C0.71317782 4.38384971 -1.51633619 5.69461206 -3.75 7 C-4.37583984 7.37318359 -5.00167969 7.74636719 -5.64648438 8.13085938 C-9.10694449 10.14191211 -12.01760676 11.57525665 -16.0625 12.0625 C-15.3515625 10.140625 -15.3515625 10.140625 -14.0625 8.0625 C-11.8984375 7.234375 -11.8984375 7.234375 -9.4375 6.8125 C-8.21160156 6.58820313 -8.21160156 6.58820313 -6.9609375 6.359375 C-6.33445313 6.26140625 -5.70796875 6.1634375 -5.0625 6.0625 C-4.918125 5.258125 -4.77375 4.45375 -4.625 3.625 C-3.8465 0.0785 -3.8465 0.0785 0 0 Z " fill="#34AED5" transform="translate(188.0625,129.9375)"/>
<path d="M0 0 C0.66 0 1.32 0 2 0 C2 2.97 2 5.94 2 9 C-4.24161903 12.58125682 -8.75420281 14.67090715 -16 14 C-16 13.67 -16 13.34 -16 13 C-12.535 12.505 -12.535 12.505 -9 12 C-9 10.35 -9 8.7 -9 7 C-8.01 7 -7.02 7 -6 7 C-6 7.66 -6 8.32 -6 9 C-4.35 9 -2.7 9 -1 9 C-1 7.35 -1 5.7 -1 4 C-0.34 4 0.32 4 1 4 C0.67 2.68 0.34 1.36 0 0 Z " fill="#49C3DE" transform="translate(56,183)"/>
<path d="M0 0 C2.0625 0.4375 2.0625 0.4375 4 1 C3.505 1.433125 3.01 1.86625 2.5 2.3125 C0.66781808 3.99740483 0.66781808 3.99740483 1 7 C0.030625 6.95875 -0.93875 6.9175 -1.9375 6.875 C-6.44889724 6.85651067 -10.64837652 7.89482578 -15 9 C-13.68 8.34 -12.36 7.68 -11 7 C-11 6.34 -11 5.68 -11 5 C-10.28972656 4.72285156 -9.57945312 4.44570312 -8.84765625 4.16015625 C-7.46900391 3.61681641 -7.46900391 3.61681641 -6.0625 3.0625 C-5.14597656 2.70285156 -4.22945312 2.34320313 -3.28515625 1.97265625 C-1.07581467 1.2003782 -1.07581467 1.2003782 0 0 Z " fill="#54D2E4" transform="translate(165,161)"/>
<path d="M0 0 C0.66 0.33 1.32 0.66 2 1 C-7.71428571 9 -7.71428571 9 -11 9 C-11 9.66 -11 10.32 -11 11 C-11.66 10.67 -12.32 10.34 -13 10 C-13.625 7.4375 -13.625 7.4375 -14 5 C-13.236875 4.71125 -12.47375 4.4225 -11.6875 4.125 C-8.84970692 3.03730987 -8.84970692 3.03730987 -6 1 C-4.66431979 1.32380126 -3.33076989 1.65657551 -2 2 C-1.34 1.34 -0.68 0.68 0 0 Z " fill="#66D7EA" transform="translate(190,165)"/>
<path d="M0 0 C0.66 0.33 1.32 0.66 2 1 C0.41779413 1.96019364 -1.16581331 2.91807798 -2.75 3.875 C-4.07257813 4.67550781 -4.07257813 4.67550781 -5.421875 5.4921875 C-11.41968912 9 -11.41968912 9 -15 9 C-16.75 6.6875 -16.75 6.6875 -18 4 C-17.67 3.01 -17.34 2.02 -17 1 C-16.67 2.32 -16.34 3.64 -16 5 C-15.154375 4.690625 -14.30875 4.38125 -13.4375 4.0625 C-10 3 -10 3 -6.3125 2.5 C-2.87037035 2.22002006 -2.87037035 2.22002006 0 0 Z " fill="#359DD1" transform="translate(170,142)"/>
<path d="M0 0 C2.8203125 -0.29296875 2.8203125 -0.29296875 6.125 -0.1875 C7.76855469 -0.14689453 7.76855469 -0.14689453 9.4453125 -0.10546875 C10.28835937 -0.07066406 11.13140625 -0.03585938 12 0 C12 0.66 12 1.32 12 2 C8.91111478 4.05925681 8.29064073 4.2390374 4.8125 4.125 C2.9253125 4.063125 2.9253125 4.063125 1 4 C0.34 5.65 -0.32 7.3 -1 9 C-1.33 9 -1.66 9 -2 9 C-2.25 3.375 -2.25 3.375 0 0 Z " fill="#3065B0" transform="translate(41,203)"/>
<path d="M0 0 C3.3721049 1.44518781 5.69880363 3.12350453 8 6 C8.5625 8.5 8.5625 8.5 8 11 C5.08772497 14.26527806 3.58864097 14.96140059 -0.8125 15.25 C-1.864375 15.1675 -2.91625 15.085 -4 15 C-4.33 14.34 -4.66 13.68 -5 13 C-3.88625 13.061875 -2.7725 13.12375 -1.625 13.1875 C-0.42875 13.125625 0.7675 13.06375 2 13 C4.1519437 9.77208445 4.20086443 8.71599191 4 5 C3.34 4.67 2.68 4.34 2 4 C2 3.34 2 2.68 2 2 C1.01 1.67 0.02 1.34 -1 1 C-0.67 0.67 -0.34 0.34 0 0 Z " fill="#2CB5D3" transform="translate(94,204)"/>
<path d="M0 0 C3.67286149 4.54735232 6.14422708 9.18074417 7 15 C3.45673535 13.6372059 1.65271553 12.65271553 -1 10 C-0.34 10 0.32 10 1 10 C0.649375 8.906875 0.29875 7.81375 -0.0625 6.6875 C-1 3 -1 3 0 0 Z " fill="#4DB2D8" transform="translate(168,75)"/>
<path d="M0 0 C0.66 0.33 1.32 0.66 2 1 C-0.10034847 2.65091584 -2.20495833 4.29581238 -4.3125 5.9375 C-4.90740234 6.40607422 -5.50230469 6.87464844 -6.11523438 7.35742188 C-8.72700884 9.38555959 -10.83892403 10.94630801 -14 12 C-13.67 10.68 -13.34 9.36 -13 8 C-12.34 8 -11.68 8 -11 8 C-11.33 7.01 -11.66 6.02 -12 5 C-9 4 -9 4 -7.125 3.625 C-4.82025327 3.0491257 -4.82025327 3.0491257 -2.375 1.375 C-1.59125 0.92125 -0.8075 0.4675 0 0 Z " fill="#3ABDDD" transform="translate(125,213)"/>
<path d="M0 0 C2.64 0.33 5.28 0.66 8 1 C8.33 1.99 8.66 2.98 9 4 C8.01 4.66 7.02 5.32 6 6 C5.26656572 9.06556598 5.26656572 9.06556598 5 12 C4.67 12 4.34 12 4 12 C3.71125 10.88625 3.4225 9.7725 3.125 8.625 C2.30758671 4.99708908 2.30758671 4.99708908 0 3 C0 2.01 0 1.02 0 0 Z " fill="#41CBE3" transform="translate(83,203)"/>
<path d="M0 0 C2.31625061 1.11777771 4.62784605 2.24374092 6.9375 3.375 C7.59685547 3.69210938 8.25621094 4.00921875 8.93554688 4.3359375 C13.88671875 6.7734375 13.88671875 6.7734375 15 9 C10.40191871 8.46105575 7.13215631 7.23428472 3.125 4.9375 C2.15820312 4.38964844 1.19140625 3.84179688 0.1953125 3.27734375 C-0.52914062 2.85582031 -1.25359375 2.43429688 -2 2 C-1.34 1.34 -0.68 0.68 0 0 Z " fill="#8BBED8" transform="translate(67,198)"/>
<path d="M0 0 C4.04021008 4.8482521 7.21123533 10.68988264 8 17 C6.68 17.33 5.36 17.66 4 18 C4.0825 17.175 4.165 16.35 4.25 15.5 C3.9673582 11.54301487 2.82823601 9.30715811 0.875 5.9296875 C0 4 0 4 0 0 Z " fill="#60C3DE" transform="translate(188,114)"/>
<path d="M0 0 C-7.5 5 -7.5 5 -15 10 C-14.68783129 7.11243942 -14.46286623 5.46286623 -12.375 3.375 C-4.15384615 -1.38461538 -4.15384615 -1.38461538 0 0 Z " fill="#2FA3CF" transform="translate(102,233)"/>
<path d="M0 0 C0.5534764 2.07553648 1 3.84365964 1 6 C3.64 6.33 6.28 6.66 9 7 C8.01 8.485 8.01 8.485 7 10 C0.125 9.125 0.125 9.125 -1 8 C-1.125 4.5 -1.125 4.5 -1 1 C-0.67 0.67 -0.34 0.34 0 0 Z " fill="#6FE7F3" transform="translate(89,208)"/>
<path d="M0 0 C0.66 0 1.32 0 2 0 C2 0.66 2 1.32 2 2 C3.98 1.67 5.96 1.34 8 1 C7.814375 1.78375 7.62875 2.5675 7.4375 3.375 C6.74037734 5.97089775 6.74037734 5.97089775 8 8 C7.34 8 6.68 8 6 8 C6 8.66 6 9.32 6 10 C5.34 10 4.68 10 4 10 C2.66666667 6.66666667 1.33333333 3.33333333 0 0 Z " fill="#218BCB" transform="translate(143,127)"/>
<path d="M0 0 C2.475 0.495 2.475 0.495 5 1 C3 3 3 3 0.29443359 3.22705078 C-0.82624512 3.21657715 -1.94692383 3.20610352 -3.1015625 3.1953125 C-4.91914063 3.18564453 -4.91914063 3.18564453 -6.7734375 3.17578125 C-8.04445312 3.15902344 -9.31546875 3.14226562 -10.625 3.125 C-11.90375 3.11597656 -13.1825 3.10695313 -14.5 3.09765625 C-17.66685167 3.07402303 -20.83333424 3.04107629 -24 3 C-24 2.67 -24 2.34 -24 2 C-16.08 2 -8.16 2 0 2 C0 1.34 0 0.68 0 0 Z " fill="#48BED5" transform="translate(247,257)"/>
<path d="M0 0 C3.31686552 0.01786463 3.9727453 0.14069624 6.6875 2.3125 C7.1825 2.9725 7.6775 3.6325 8.1875 4.3125 C4.8875 4.3125 1.5875 4.3125 -1.8125 4.3125 C-1.8125 3.6525 -1.8125 2.9925 -1.8125 2.3125 C-2.8025 1.9825 -3.7925 1.6525 -4.8125 1.3125 C-3.8125 0.3125 -3.8125 0.3125 0 0 Z " fill="#4EC5DE" transform="translate(42.8125,167.6875)"/>
<path d="M0 0 C3.04888043 1.41781585 3.83857914 3.45920288 5.37890625 6.3984375 C6.17748047 7.88150391 6.17748047 7.88150391 6.9921875 9.39453125 C7.34667969 10.24144531 7.70117188 11.08835938 8.06640625 11.9609375 C7.73640625 12.6209375 7.40640625 13.2809375 7.06640625 13.9609375 C6.22482089 12.69555381 5.39340877 11.42339971 4.56640625 10.1484375 C4.10234375 9.44074219 3.63828125 8.73304688 3.16015625 8.00390625 C2.06640625 5.9609375 2.06640625 5.9609375 2.06640625 2.9609375 C-0.57359375 3.2909375 -3.21359375 3.6209375 -5.93359375 3.9609375 C-2.52944088 -0.05109982 -2.52944088 -0.05109982 0 0 Z " fill="#8ED8EA" transform="translate(210.93359375,160.0390625)"/>
<path d="M0 0 C0.66 0.33 1.32 0.66 2 1 C-1.1994328 4.71134205 -4.3705719 6.42930118 -9 8 C-11.4375 7.6875 -11.4375 7.6875 -13 7 C-10.80202597 4.80202597 -9.82453855 4.54102483 -6.875 3.875 C-5.59625 3.58625 -4.3175 3.2975 -3 3 C-3 2.34 -3 1.68 -3 1 C-2.01 0.67 -1.02 0.34 0 0 Z " fill="#92DFEB" transform="translate(180,153)"/>
<path d="M0 0 C-6.4150557 2.87940913 -11.97047248 4.5464821 -19 5 C-16.4156782 2.4156782 -14.10624423 1.89598837 -10.625 0.8125 C-9.48289063 0.44769531 -8.34078125 0.08289063 -7.1640625 -0.29296875 C-4.18525347 -0.95860385 -2.79128097 -1.07938697 0 0 Z " fill="#A2E8F0" transform="translate(218,140)"/>
<path d="M0 0 C3.11257569 0 5.10765685 0.17361624 8 1 C5.66666667 3.33333333 3.33333333 5.66666667 1 8 C0.34 7.67 -0.32 7.34 -1 7 C-0.67 4.69 -0.34 2.38 0 0 Z " fill="#2EAFD6" transform="translate(103,224)"/>
<path d="M0 0 C-4.455 3.465 -4.455 3.465 -9 7 C-9.66 6.67 -10.32 6.34 -11 6 C-10.34 4.02 -9.68 2.04 -9 0 C-2.25 -1.125 -2.25 -1.125 0 0 Z " fill="#58D4E7" transform="translate(177,177)"/>
<path d="M0 0 C0.598125 0.165 1.19625 0.33 1.8125 0.5 C4.11344336 1.1114124 4.11344336 1.1114124 7 1 C5.625 2.5 5.625 2.5 4 4 C3.34 4 2.68 4 2 4 C2 4.66 2 5.32 2 6 C0.35 6.66 -1.3 7.32 -3 8 C-2.67 7.01 -2.34 6.02 -2 5 C-1.34 5 -0.68 5 0 5 C-0.33 4.01 -0.66 3.02 -1 2 C-0.67 1.34 -0.34 0.68 0 0 Z " fill="#4ACAE1" transform="translate(137,200)"/>
<path d="M0 0 C1.75 0.0625 1.75 0.0625 4 1 C6.34687556 3.92397611 8.14013944 6.63364045 7.75 10.4375 C7.5025 10.953125 7.255 11.46875 7 12 C4.16625119 8.79663178 3.4794463 6.21912747 3 2 C2.01 2 1.02 2 0 2 C0 1.34 0 0.68 0 0 Z " fill="#4395CB" transform="translate(135,113)"/>
<path d="M0 0 C-1.30570867 2.61141733 -2.49351069 3.48291437 -5 5 C-8.75 5.6875 -8.75 5.6875 -12 6 C-10.68 5.34 -9.36 4.68 -8 4 C-8 3.34 -8 2.68 -8 2 C-5.09399739 0.74335022 -3.20395416 0 0 0 Z " fill="#7DD6E4" transform="translate(162,164)"/>
<path d="M0 0 C0.99 0.33 1.98 0.66 3 1 C2.01 2.98 1.02 4.96 0 7 C-1.65 7 -3.3 7 -5 7 C-5 6.34 -5 5.68 -5 5 C-4.34 5 -3.68 5 -3 5 C-2.5359375 4.0409375 -2.5359375 4.0409375 -2.0625 3.0625 C-1 1 -1 1 0 0 Z " fill="#54D7E4" transform="translate(182,153)"/>
<path d="M0 0 C-0.33 0.99 -0.66 1.98 -1 3 C-2.32 3 -3.64 3 -5 3 C-5.66 4.65 -6.32 6.3 -7 8 C-7.33 8 -7.66 8 -8 8 C-8.1875 5.125 -8.1875 5.125 -8 2 C-4.77208445 -0.1519437 -3.71599191 -0.20086443 0 0 Z " fill="#315CA9" transform="translate(47,204)"/>
<path d="M0 0 C0.66 0.66 1.32 1.32 2 2 C-3.75 7 -3.75 7 -6 7 C-6.33 5.68 -6.66 4.36 -7 3 C-4 2 -4 2 0 2 C0 1.34 0 0.68 0 0 Z " fill="#40C8E4" transform="translate(150,193)"/>
<path d="M0 0 C0.66 0 1.32 0 2 0 C2 2.97 2 5.94 2 9 C0.02 9.99 -1.96 10.98 -4 12 C-3.67 11.01 -3.34 10.02 -3 9 C-2.34 9 -1.68 9 -1 9 C-1 7.35 -1 5.7 -1 4 C-0.34 4 0.32 4 1 4 C0.67 2.68 0.34 1.36 0 0 Z " fill="#4CD2E6" transform="translate(56,183)"/>
<path d="M0 0 C2 3 2 3 2 5 C0.35 5.66 -1.3 6.32 -3 7 C-3.66 5.68 -4.32 4.36 -5 3 C-3.35 2.01 -1.7 1.02 0 0 Z " fill="#259BD6" transform="translate(188,177)"/>
<path d="M0 0 C2.0625 1.75 2.0625 1.75 4 4 C3.75 6.25 3.75 6.25 3 8 C2.34 7.34 1.68 6.68 1 6 C0.01 6.495 0.01 6.495 -1 7 C-1 6.01 -1 5.02 -1 4 C-1.66 3.67 -2.32 3.34 -3 3 C-2.34 3 -1.68 3 -1 3 C-0.67 2.01 -0.34 1.02 0 0 Z " fill="#5DD5E7" transform="translate(54,172)"/>
<path d="M0 0 C0.33 0 0.66 0 1 0 C2.27253436 3.64793184 3.32829194 7.1936543 4 11 C4.99 11.33 5.98 11.66 7 12 C6.01 12.33 5.02 12.66 4 13 C0.47726246 8.48649253 -0.45732667 5.71658336 0 0 Z " fill="#3595CA" transform="translate(31,180)"/>
<path d="M0 0 C3.93846154 4.30769231 3.93846154 4.30769231 4.25 7.8125 C4.1675 8.534375 4.085 9.25625 4 10 C2.68 9.67 1.36 9.34 0 9 C0 6.03 0 3.06 0 0 Z " fill="#43C0DE" transform="translate(216,170)"/>
<path d="M0 0 C3 2 3 2 3.6875 4.625 C3.8421875 5.800625 3.8421875 5.800625 4 7 C3.34 7 2.68 7 2 7 C2 7.66 2 8.32 2 9 C1.34 9 0.68 9 0 9 C0 6.03 0 3.06 0 0 Z " fill="#5FCCE2" transform="translate(235,207)"/>
<path d="M0 0 C2.31 0 4.62 0 7 0 C5.37660195 1.70884005 3.70680947 3.37446717 2 5 C1.34 5 0.68 5 0 5 C0 3.35 0 1.7 0 0 Z " fill="#3AC3DE" transform="translate(127,208)"/>
<path d="M0 0 C2.74277578 3.19990508 4.6302836 6.00499382 6 10 C5.01 9.67 4.02 9.34 3 9 C3 8.01 3 7.02 3 6 C2.34 6 1.68 6 1 6 C0.67 4.02 0.34 2.04 0 0 Z " fill="#6DCADF" transform="translate(220,177)"/>
<path d="M0 0 C0.33 0.66 0.66 1.32 1 2 C2.65 2 4.3 2 6 2 C6 3.32 6 4.64 6 6 C4.35 5.67 2.7 5.34 1 5 C0.67 3.35 0.34 1.7 0 0 Z " fill="#274EA1" transform="translate(65,174)"/>
<path d="M0 0 C1.98 0 3.96 0 6 0 C6.33 1.32 6.66 2.64 7 4 C3.89448334 4 2.64738916 3.4606285 0 2 C0 1.34 0 0.68 0 0 Z " fill="#3CC0DD" transform="translate(207,163)"/>
<path d="M0 0 C0.33 1.32 0.66 2.64 1 4 C0.34 4 -0.32 4 -1 4 C-1.33 3.34 -1.66 2.68 -2 2 C-3.65 2.66 -5.3 3.32 -7 4 C-7.33 3.34 -7.66 2.68 -8 2 C-5.09399739 0.74335022 -3.20395416 0 0 0 Z " fill="#30B5DB" transform="translate(107,196)"/>
<path d="M0 0 C0.99 0.33 1.98 0.66 3 1 C2.67 2.98 2.34 4.96 2 7 C1.34 6.67 0.68 6.34 0 6 C-0.6875 3.5 -0.6875 3.5 -1 1 C-0.67 0.67 -0.34 0.34 0 0 Z " fill="#52D1E7" transform="translate(177,169)"/>
<path d="M0 0 C0.66 0 1.32 0 2 0 C2 0.66 2 1.32 2 2 C2.66 2 3.32 2 4 2 C4.33 4.64 4.66 7.28 5 10 C4.731875 9.4225 4.46375 8.845 4.1875 8.25 C3.04946754 5.94252104 3.04946754 5.94252104 1.375 3.875 C0 2 0 2 0 0 Z " fill="#58A3D2" transform="translate(143,127)"/>
<path d="M0 0 C0.66 0.99 1.32 1.98 2 3 C0.35 4.65 -1.3 6.3 -3 8 C-3.33 7.34 -3.66 6.68 -4 6 C-2.68 4.02 -1.36 2.04 0 0 Z " fill="#5796C7" transform="translate(117,57)"/>
<path d="M0 0 C2.03144641 0.93446535 4.03533587 1.93224776 6 3 C6 3.33 6 3.66 6 4 C3.6568787 3.74438677 1.32156597 3.40729228 -1 3 C-1.33 2.34 -1.66 1.68 -2 1 C-1.34 0.67 -0.68 0.34 0 0 Z " fill="#BBDBEC" transform="translate(67,198)"/>
<path d="M0 0 C2.79872437 2.52788007 4.45773019 4.20411134 5 8 C4.34 8 3.68 8 3 8 C3 7.01 3 6.02 3 5 C1.68 4.67 0.36 4.34 -1 4 C-0.67 2.68 -0.34 1.36 0 0 Z " fill="#5ABCDC" transform="translate(177,94)"/>
<path d="M0 0 C3.10551666 3.10551666 3.81323934 4.89198233 5 9 C4.01 9 3.02 9 2 9 C1.34 6.03 0.68 3.06 0 0 Z " fill="#6DBCDB" transform="translate(161,62)"/>
</svg>
